<svg width="24" height="21" viewBox="0 0 24 21" fill="none" xmlns="http://www.w3.org/2000/svg">
<g clip-path="url(#clip0_8_189)">
<path d="M16.6061 0H7.39434C6.70602 0 6.1499 0.545064 6.1499 1.21971V19.7795C6.1499 20.4541 6.70687 20.9992 7.39434 20.9992H16.6061C17.2944 20.9992 17.8505 20.4541 17.8505 19.7795V1.21971C17.8505 0.545064 17.2944 0 16.6061 0ZM10.6381 1.16286H13.318C13.5304 1.16286 13.6984 1.33507 13.6984 1.53654C13.6984 1.73802 13.5304 1.91692 13.318 1.91692H10.6381C10.4257 1.91692 10.2577 1.74471 10.2577 1.53654C10.2577 1.32838 10.4257 1.16286 10.6381 1.16286ZM12.6885 19.6365H11.8023C11.3264 19.6365 10.9451 19.2561 10.9451 18.7972C10.9451 18.3382 11.3264 17.957 11.8023 17.957H12.6885C13.1645 17.957 13.5457 18.3307 13.5457 18.7972C13.5457 19.2637 13.1645 19.6365 12.6885 19.6365ZM16.3203 16.0911C16.3203 16.3636 16.0935 16.586 15.8077 16.586H8.17052C7.89246 16.586 7.6579 16.3636 7.6579 16.0911V3.58137C7.6579 3.30131 7.89246 3.07894 8.17052 3.07894H15.8077C16.0935 3.07894 16.3203 3.30131 16.3203 3.58137V16.0911Z" fill="#005F7F"/>
<path d="M20.1027 7.3124C19.8528 7.08418 19.4613 7.09839 19.2285 7.34333C18.9956 7.58911 19.0093 7.97199 19.26 8.20022C19.9151 8.79795 20.2767 9.61471 20.2767 10.5C20.2767 11.3853 19.9159 12.2013 19.26 12.7998C19.1287 12.9194 19.063 13.0815 19.063 13.2437C19.063 13.3917 19.1176 13.5397 19.2285 13.6567C19.4613 13.9017 19.8528 13.9159 20.1027 13.6876C21.0128 12.8575 21.5135 11.7256 21.5135 10.5009C21.5135 9.27613 21.0128 8.14337 20.1027 7.31407V7.3124Z" fill="#00B1DA"/>
<path d="M20.8184 6.02995C20.8184 6.18962 20.8823 6.3493 21.0094 6.46801C22.1404 7.52804 22.7631 8.96008 22.7631 10.5C22.7631 12.0399 22.1421 13.4652 21.0137 14.5344C20.768 14.7677 20.7621 15.1514 20.9992 15.3922C21.2363 15.6329 21.6287 15.6388 21.8743 15.4064C23.245 14.1064 24.0007 12.3642 24.0007 10.5008C24.0007 8.63739 23.2424 6.88349 21.8658 5.59273C21.6184 5.36116 21.2269 5.36952 20.9907 5.61195C20.8755 5.72983 20.8192 5.88031 20.8192 6.03078L20.8184 6.02995Z" fill="#00B1DA"/>
<path d="M3.89709 7.3124C4.147 7.08418 4.5385 7.09839 4.77135 7.34333C5.0042 7.58911 4.99056 7.97199 4.73979 8.20022C4.08474 8.79795 3.72309 9.61471 3.72309 10.5C3.72309 11.3853 4.08388 12.2013 4.73979 12.7998C4.87115 12.9194 4.93682 13.0815 4.93682 13.2437C4.93682 13.3917 4.88223 13.5397 4.77135 13.6567C4.5385 13.9017 4.147 13.9159 3.89709 13.6876C2.987 12.8575 2.48633 11.7256 2.48633 10.5009C2.48633 9.27613 2.987 8.14337 3.89709 7.31407V7.3124Z" fill="#00B1DA"/>
<path d="M3.18146 6.02993C3.18146 6.1896 3.11749 6.34928 2.9904 6.46799C1.85941 7.52802 1.23676 8.96006 1.23676 10.5C1.23676 12.0398 1.8577 13.4652 2.98614 14.5344C3.23179 14.7677 3.23776 15.1514 3.00064 15.3921C2.76352 15.6329 2.37117 15.6388 2.12552 15.4064C0.754851 14.1056 0 12.3634 0 10.5C0 8.63654 0.758263 6.88264 2.13491 5.59187C2.38226 5.3603 2.77376 5.36866 3.01002 5.6111C3.12517 5.72897 3.18146 5.87945 3.18146 6.02993Z" fill="#00B1DA"/>
</g>
<defs>
<clipPath id="clip0_8_189">
<rect width="24" height="21" fill="white"/>
</clipPath>
</defs>
</svg>
