<svg width="21" height="21" viewBox="0 0 21 21" fill="none" xmlns="http://www.w3.org/2000/svg">
<g clip-path="url(#clip0_8_187)">
<path d="M16.7512 16.0082C18.4859 16.0045 20.0424 14.7843 20.4533 13.104C20.7261 11.9929 20.8116 10.8454 20.7097 9.68882C20.277 4.74427 16.3802 0.794445 11.4434 0.299807C11.0906 0.265256 10.7324 0.24707 10.3814 0.24707C7.60844 0.24707 5.00273 1.32545 3.04254 3.28218C0.831411 5.48986 -0.257786 8.55043 0.0531535 11.6801C0.549566 16.6901 4.72088 20.6909 9.75774 20.9855C9.96321 20.9964 10.1687 21.0018 10.3633 21.0018C11.8652 21.0018 13.3708 20.6745 14.7164 20.0544C15.1565 19.8507 15.351 19.3252 15.1474 18.8851C15.0037 18.5741 14.6891 18.3741 14.3473 18.3741C14.22 18.3741 14.0945 18.4013 13.9782 18.4559C12.8471 18.9778 11.6361 19.2433 10.3833 19.2433C10.216 19.2433 10.0396 19.2379 9.85957 19.227C5.67916 18.9833 2.217 15.6663 1.80605 11.5092C1.54966 8.90868 2.45339 6.36457 4.28811 4.5315C5.91373 2.90756 8.08121 2.01285 10.3905 2.01285C10.6869 2.01285 10.9815 2.0274 11.2688 2.0565C15.2965 2.46021 18.6022 5.80992 18.9568 9.84703C19.0405 10.8108 18.9696 11.7674 18.7441 12.6876C18.515 13.6205 17.6912 14.2478 16.6966 14.2478C16.6911 14.2478 16.6821 14.2478 16.6766 14.2478C15.5638 14.2097 14.6928 13.3077 14.6928 12.1947V6.77373C14.6928 6.28819 14.2982 5.89357 13.8127 5.89357C13.4817 5.89357 13.1835 6.07724 13.0326 6.37184C12.9417 6.55006 12.7617 6.65371 12.5726 6.65371C12.5089 6.65371 12.4453 6.6428 12.3835 6.61734C11.747 6.36639 11.056 6.24091 10.3287 6.24091C7.85755 6.24091 5.84827 8.24128 5.84827 10.6981C5.84827 13.1549 7.85755 15.1553 10.3287 15.1553C11.3343 15.1553 12.2853 14.9062 13.0799 14.4352C13.1617 14.3861 13.2526 14.3624 13.3417 14.3624C13.4963 14.3624 13.6472 14.4315 13.7472 14.5588C14.46 15.4663 15.4983 15.9663 16.7512 16.01V16.0082ZM12.929 11.531C12.929 12.1111 12.6417 12.6439 12.178 12.9167C11.6561 13.2258 11.016 13.3913 10.3269 13.3913C8.82856 13.3913 7.60844 12.182 7.60844 10.6963C7.60844 9.21055 8.82856 8.00124 10.3269 8.00124C10.956 8.00124 11.5488 8.13762 12.0416 8.39404C12.5889 8.67772 12.929 9.24146 12.929 9.86522V11.531Z" fill="#005F7F"/>
</g>
<defs>
<clipPath id="clip0_8_187">
<rect width="20.7529" height="20.7529" fill="white" transform="translate(0 0.24707)"/>
</clipPath>
</defs>
</svg>
