<svg width="21" height="21" viewBox="0 0 21 21" fill="none" xmlns="http://www.w3.org/2000/svg">
<g clip-path="url(#clip0_8_184)">
<path d="M11.0283 15.9141C10.5769 17.173 10.0494 17.8283 9.69102 17.8283C9.12067 17.8283 8.14097 16.1864 7.69845 13.1159H10.3471L10.3042 12.9454C10.1934 12.4865 10.2363 12.0097 10.424 11.5847H7.53665C7.48568 10.9892 7.46869 10.3517 7.46869 9.67937C7.46869 9.00709 7.48568 8.36956 7.53665 7.78293H11.8543C11.8972 8.36956 11.9222 9.0079 11.9222 9.67937C11.9222 9.90077 11.9222 10.1133 11.9133 10.3258C12.0751 10.2749 12.2539 10.2579 12.4246 10.2579C12.5953 10.2579 12.7741 10.2749 12.944 10.3177L13.4383 10.4365C13.4553 10.19 13.4553 9.93471 13.4553 9.67937C13.4553 9.04103 13.4383 8.4035 13.3873 7.78293H17.62C17.7729 8.38653 17.8587 9.02487 17.8587 9.67937C17.8587 10.283 17.7818 10.8785 17.6459 11.449L19.0423 11.7891C19.0762 11.798 19.1191 11.8061 19.1531 11.8231C19.306 11.1338 19.3917 10.4195 19.3917 9.67937C19.3909 4.33831 15.0393 0 9.69102 0C4.34271 0 0 4.33831 0 9.67937C0 15.0204 4.35161 19.3587 9.69102 19.3587C10.4232 19.3587 11.1302 19.282 11.8114 19.1204C11.8025 19.0945 11.7944 19.0695 11.7863 19.0436L11.0283 15.9133V15.9141ZM17.0829 6.25172H13.2336C12.995 4.54193 12.5864 2.99375 12.0072 1.86251C14.2643 2.53479 16.1032 4.15084 17.0829 6.25172ZM9.69102 1.53121C10.2614 1.53121 11.2492 3.17313 11.6925 6.25172H7.69845C8.14097 3.17232 9.12067 1.53121 9.69102 1.53121ZM1.53306 9.67937C1.53306 9.02406 1.618 8.38653 1.76281 7.78293H6.00359C5.95263 8.4035 5.92674 9.04184 5.92674 9.67937C5.92674 10.3169 5.95263 10.9552 6.00359 11.5847H1.76281C1.618 10.9722 1.53306 10.3347 1.53306 9.67937ZM2.29918 13.1159H6.1573C6.38706 14.8168 6.8045 16.365 7.38375 17.4962C5.12744 16.824 3.28778 15.2079 2.29999 13.1159H2.29918ZM6.1573 6.25172H2.29918C3.28697 4.15084 5.12664 2.53479 7.38294 1.86251C6.80369 2.99375 6.38625 4.54193 6.15649 6.25172H6.1573Z" fill="#005F7F"/>
<path d="M20.0602 18.2307L17.1583 15.3323L18.8224 14.4879C19.3588 14.2156 19.2658 13.423 18.6809 13.2816L12.5818 11.8085C12.1102 11.6946 11.6854 12.1188 11.7995 12.5899L13.2743 18.6816C13.4159 19.2666 14.2095 19.3587 14.4821 18.823L15.3284 17.1617L18.2302 20.0601C18.3856 20.2152 18.638 20.2152 18.7941 20.0601L20.061 18.7947C20.2163 18.6388 20.2163 18.3867 20.061 18.2315L20.0602 18.2307Z" fill="#00B1DA"/>
</g>
<defs>
<clipPath id="clip0_8_184">
<rect width="20.1765" height="20.1765" fill="white"/>
</clipPath>
</defs>
</svg>
