<svg width="71" height="67" viewBox="0 0 71 67" fill="none" xmlns="http://www.w3.org/2000/svg">
<g clip-path="url(#clip0_37_2)">
<path d="M46.5342 43.3886L46.4931 43.3338C45.91 42.5556 45.1213 42.0229 44.2572 41.7507C45.1432 40.241 45.0961 38.2814 43.9829 36.796L43.9419 36.7412C43.3522 35.9543 42.5498 35.4163 41.6739 35.1492C42.5243 33.6466 42.4635 31.7206 41.3653 30.2552L41.3243 30.2004C40.8279 29.538 40.1814 29.0522 39.4666 28.7557L39.6337 28.6305L42.6663 26.3579L42.6607 26.3504L47.8328 22.453C49.8104 20.9709 50.2157 18.1571 48.7358 16.1825L48.6947 16.1277C47.2149 14.153 44.4005 13.752 42.4203 15.2359L25.8174 27.7619C25.7762 27.7928 25.7183 27.7545 25.7334 27.7044L27.0481 23.1707C27.4152 21.904 27.0314 20.5214 26.021 19.6746C25.9843 19.6438 25.9494 19.6154 25.9133 19.588L25.8903 19.5703C25.2327 19.0618 24.4328 18.7532 23.5999 18.7357C22.2513 18.7082 21.0445 19.317 20.2846 20.3764L17.4657 25.213L17.4479 25.2438C17.308 25.5041 14.0021 31.6292 12.7396 34.7646C11.3716 37.5747 10.7466 40.0613 10.59 43.3109C10.5163 43.8309 9.96742 48.6539 14.2129 54.319C14.3267 54.4709 14.444 54.6222 14.5644 54.775C15.9115 56.4817 17.4879 57.8863 19.2479 58.9511C19.6627 59.2449 20.0602 59.4817 20.4301 59.6556C21.595 60.2019 22.7798 60.6031 23.9385 60.845C24.7074 61.0135 25.3138 61.0743 25.6003 61.0851C28.4697 61.3126 31.1045 60.5436 33.4313 58.7999L45.629 49.6588C47.6104 48.174 48.0147 45.3667 46.532 43.3883L46.5342 43.3886Z" fill="#005F7F"/>
<path d="M55.4709 11.0787L55.4597 11.0638C55.0434 10.5082 54.2547 10.3958 53.6983 10.8128L50.6981 13.0611C50.1417 13.4782 50.0281 14.2666 50.4445 14.8222L50.4557 14.8372C50.8721 15.3928 51.6607 15.5051 52.2171 15.0881L55.2173 12.8398C55.7738 12.4228 55.8873 11.6343 55.4709 11.0787Z" fill="#009ABF"/>
<path d="M51.6423 28.5109L49.3927 25.509C48.9763 24.9534 48.1877 24.841 47.6313 25.258L47.6163 25.2693C47.0598 25.6863 46.9463 26.4747 47.3627 27.0303L49.6123 30.0322C50.0287 30.5878 50.8173 30.7002 51.3738 30.2832L51.3887 30.272C51.9452 29.855 52.0587 29.0665 51.6423 28.5109Z" fill="#009ABF"/>
<path d="M56.6014 22.5546C56.935 22.6021 57.2652 22.518 57.5346 22.3161C57.8039 22.1143 57.9787 21.82 58.0254 21.4874L58.0283 21.4678C58.0763 21.1343 57.9926 20.8043 57.791 20.5354C57.5895 20.2665 57.2953 20.0922 56.9627 20.0459L52.8381 19.4583C52.5046 19.4108 52.1743 19.4949 51.905 19.6968C51.6356 19.8986 51.4609 20.1929 51.4141 20.5255L51.4113 20.5451C51.3632 20.8785 51.447 21.2085 51.6485 21.4775C51.8501 21.7464 52.1442 21.9207 52.4768 21.967L56.6014 22.5546Z" fill="#009ABF"/>
<path d="M39.9034 12.8466L37.6211 9.80113C37.2047 9.24552 36.4161 9.13316 35.8597 9.55016L35.8447 9.56137C35.2882 9.97838 35.1747 10.7668 35.5911 11.3225L37.8734 14.3679C38.2897 14.9235 39.0784 15.0359 39.6348 14.6189L39.6498 14.6077C40.2062 14.1907 40.3198 13.4022 39.9034 12.8466Z" fill="#009ABF"/>
<path d="M47.2721 7.11245C47.3201 6.77898 47.2364 6.44898 47.0348 6.18004C46.8333 5.91111 46.5391 5.73685 46.2065 5.69058L46.1869 5.68778C45.8555 5.64057 45.524 5.72568 45.2547 5.92753C44.9853 6.12938 44.8106 6.42366 44.7629 6.75495L44.169 10.8787C44.121 11.2121 44.2047 11.5421 44.4063 11.8111C44.6078 12.08 44.902 12.2543 45.2346 12.3005L45.2542 12.3033C45.5856 12.3505 45.9171 12.2654 46.1864 12.0636C46.4557 11.8617 46.6305 11.5675 46.6782 11.2362L47.2721 7.11245Z" fill="#009ABF"/>
</g>
<defs>
<clipPath id="clip0_37_2">
<rect width="38.8167" height="58.9438" fill="white" transform="translate(47.1685) rotate(53.1518)"/>
</clipPath>
</defs>
</svg>
