<svg width="243" height="93" viewBox="0 0 243 93" fill="none" xmlns="http://www.w3.org/2000/svg">
<g clip-path="url(#clip0_2_4)">
<path d="M9.19738 82.8301V92.8335H7.29111L2.29587 86.7565V92.8335H0V82.8301H1.92018L6.90151 88.9071V82.8301H9.19738Z" fill="#005F7F"/>
<path d="M12.6899 91.8207C11.8968 91.0298 11.4933 89.906 11.4933 88.4353V82.8301H13.817V88.3521C13.817 90.1419 14.5684 91.0437 16.0572 91.0437C16.7807 91.0437 17.3373 90.8217 17.713 90.3916C18.0887 89.9615 18.2835 89.2817 18.2835 88.3521V82.8301H20.5793V88.4353C20.5793 89.906 20.1758 91.0298 19.3827 91.8207C18.5896 92.6115 17.4765 93.0139 16.0294 93.0139C14.5823 93.0139 13.483 92.6254 12.676 91.8207H12.6899Z" fill="#005F7F"/>
<path d="M32.0029 92.8335V86.8259L29.0392 91.7651H27.9956L25.0597 86.9507V92.8196H22.8751V82.8162H24.7953L28.5522 89.0319L32.2534 82.8162H34.1596L34.1875 92.8196H32.0029V92.8335Z" fill="#005F7F"/>
<path d="M45.1938 88.5325C45.5138 88.9626 45.6808 89.4759 45.6808 90.1003C45.6808 90.9743 45.3329 91.6542 44.6511 92.1259C43.9693 92.5976 42.9675 92.8335 41.6595 92.8335H36.4695V82.8301H41.3673C42.5918 82.8301 43.5241 83.0659 44.178 83.5238C44.832 83.9955 45.1659 84.6199 45.1659 85.4246C45.1659 85.9102 45.0546 86.3403 44.8181 86.7288C44.5815 87.1173 44.2615 87.4086 43.8302 87.6306C44.4007 87.811 44.8459 88.1162 45.1799 88.5325H45.1938ZM38.7932 84.5644V86.923H41.103C41.6734 86.923 42.1048 86.8259 42.4109 86.6178C42.717 86.4097 42.8562 86.1183 42.8562 85.7298C42.8562 85.3413 42.7031 85.05 42.4109 84.8557C42.1187 84.6615 41.6734 84.5644 41.103 84.5644H38.7932ZM42.884 90.7801C43.1901 90.5859 43.3432 90.2667 43.3432 89.8505C43.3432 89.0181 42.7309 88.6018 41.4926 88.6018H38.7793V91.0715H41.4926C42.1048 91.0715 42.564 90.9743 42.8701 90.7662L42.884 90.7801Z" fill="#005F7F"/>
<path d="M55.2956 90.9743V92.8335H47.5314V82.8301H55.1147V84.6892H49.8412V86.8675H54.5025V88.6712H49.8412V90.9882H55.2956V90.9743Z" fill="#005F7F"/>
<path d="M63.9781 92.8335L62.044 90.0448H59.9151V92.8335H57.5914V82.8301H61.9327C62.8232 82.8301 63.5885 82.9827 64.2425 83.2741C64.8965 83.5654 65.3974 83.9817 65.7591 84.5366C66.107 85.0777 66.2879 85.7159 66.2879 86.4652C66.2879 87.2144 66.107 87.8526 65.7452 88.3937C65.3835 88.9348 64.8825 89.351 64.2147 89.6285L66.4688 92.8474H63.9781V92.8335ZM63.3937 85.161C63.0319 84.8557 62.5032 84.717 61.8075 84.717H59.9151V88.1995H61.8075C62.5032 88.1995 63.0319 88.0468 63.3937 87.7416C63.7555 87.4364 63.9364 87.0063 63.9364 86.4513C63.9364 85.8963 63.7555 85.4523 63.3937 85.161Z" fill="#005F7F"/>
<path d="M69.2099 92.6809C68.4724 92.4728 67.8741 92.1814 67.4288 91.8484L68.2219 90.1002C68.6533 90.4194 69.1681 90.6691 69.7525 90.8633C70.3508 91.0576 70.9352 91.1547 71.5336 91.1547C72.1875 91.1547 72.6745 91.0576 72.9946 90.8633C73.3146 90.6691 73.4677 90.4055 73.4677 90.0864C73.4677 89.8505 73.3703 89.6563 73.1894 89.4898C73.0085 89.3372 72.758 89.2123 72.4797 89.1152C72.1875 89.018 71.7979 88.9209 71.297 88.7961C70.5317 88.6157 69.9056 88.4353 69.4186 88.255C68.9316 88.0746 68.5142 87.7832 68.1663 87.3809C67.8184 86.9785 67.6376 86.4513 67.6376 85.7853C67.6376 85.2026 67.7906 84.6754 68.1106 84.2036C68.4307 83.7319 68.9038 83.3573 69.5299 83.0798C70.17 82.8023 70.9352 82.6636 71.8536 82.6636C72.4937 82.6636 73.1198 82.7468 73.732 82.8856C74.3443 83.0382 74.873 83.2602 75.3322 83.5377L74.6225 85.2997C73.6903 84.7725 72.7719 84.5089 71.8397 84.5089C71.1857 84.5089 70.7126 84.6199 70.3926 84.828C70.0726 85.0361 69.9334 85.3136 69.9334 85.6604C69.9334 86.0073 70.1143 86.257 70.4761 86.4235C70.8378 86.59 71.3805 86.7565 72.118 86.923C72.8833 87.1034 73.5094 87.2837 73.9964 87.4641C74.4834 87.6445 74.9008 87.9358 75.2487 88.3243C75.5966 88.7128 75.7774 89.24 75.7774 89.906C75.7774 90.4749 75.6105 91.0021 75.3043 91.4738C74.9843 91.9455 74.4973 92.3201 73.8573 92.5976C73.2172 92.8751 72.438 93.0139 71.5197 93.0139C70.7265 93.0139 69.9612 92.9029 69.2238 92.6947L69.2099 92.6809Z" fill="#005F7F"/>
<path d="M80.7727 82.8301H83.0964V92.8335H80.7727V82.8301Z" fill="#005F7F"/>
<path d="M94.6732 82.8301V92.8335H92.7669L87.7717 86.7565V92.8335H85.4758V82.8301H87.396L92.3773 88.9071V82.8301H94.6732Z" fill="#005F7F"/>
<path d="M106.166 82.8301V92.8335H104.26L99.2649 86.7565V92.8335H96.969V82.8301H98.8892L103.871 88.9071V82.8301H106.166Z" fill="#B1B1B1"/>
<path d="M110.675 92.3341C109.84 91.8901 109.186 91.2657 108.713 90.4888C108.24 89.7118 108.003 88.8238 108.003 87.8388C108.003 86.8537 108.24 85.9796 108.713 85.1888C109.186 84.3979 109.84 83.7874 110.675 83.3435C111.509 82.8995 112.456 82.6775 113.485 82.6775C114.515 82.6775 115.461 82.8995 116.296 83.3435C117.131 83.7874 117.785 84.4118 118.258 85.1888C118.731 85.9796 118.968 86.8537 118.968 87.8388C118.968 88.8238 118.731 89.6979 118.258 90.4888C117.785 91.2796 117.131 91.8901 116.296 92.3341C115.461 92.778 114.529 93 113.485 93C112.442 93 111.509 92.778 110.675 92.3341ZM115.099 90.6275C115.572 90.35 115.948 89.9754 116.226 89.4898C116.505 89.0042 116.63 88.4492 116.63 87.8249C116.63 87.2005 116.491 86.6594 116.226 86.16C115.948 85.6744 115.586 85.2997 115.099 85.0223C114.626 84.7448 114.084 84.6199 113.499 84.6199C112.915 84.6199 112.372 84.7586 111.899 85.0223C111.426 85.2997 111.05 85.6744 110.772 86.16C110.494 86.6456 110.368 87.2005 110.368 87.8249C110.368 88.4492 110.508 88.9903 110.772 89.4898C111.05 89.9754 111.426 90.35 111.899 90.6275C112.372 90.905 112.915 91.0299 113.499 91.0299C114.084 91.0299 114.626 90.8911 115.099 90.6275Z" fill="#B1B1B1"/>
<path d="M130.196 82.8301L125.855 92.8335H123.559L119.232 82.8301H121.737L124.784 89.9754L127.873 82.8301H130.183H130.196Z" fill="#B1B1B1"/>
<path d="M136.583 90.683H131.922L131.031 92.8335H128.652L133.118 82.8301H135.414L139.895 92.8335H137.46L136.569 90.683H136.583ZM135.846 88.9209L134.259 85.0916L132.673 88.9209H135.86H135.846Z" fill="#B1B1B1"/>
<path d="M142.26 84.717H139.046V82.8301H147.784V84.717H144.57V92.8335H142.246V84.717H142.26Z" fill="#B1B1B1"/>
<path d="M150.094 82.8301H152.418V92.8335H150.094V82.8301Z" fill="#B1B1B1"/>
<path d="M156.773 92.3341C155.938 91.8901 155.284 91.2657 154.811 90.4888C154.338 89.7118 154.101 88.8238 154.101 87.8388C154.101 86.8537 154.338 85.9796 154.811 85.1888C155.284 84.3979 155.938 83.7874 156.773 83.3435C157.608 82.8995 158.554 82.6775 159.584 82.6775C160.613 82.6775 161.559 82.8995 162.394 83.3435C163.229 83.7874 163.883 84.4118 164.356 85.1888C164.829 85.9796 165.066 86.8537 165.066 87.8388C165.066 88.8238 164.829 89.6979 164.356 90.4888C163.883 91.2796 163.229 91.8901 162.394 92.3341C161.559 92.778 160.627 93 159.584 93C158.54 93 157.608 92.778 156.773 92.3341ZM161.198 90.6275C161.671 90.35 162.046 89.9754 162.325 89.4898C162.603 89.0042 162.728 88.4492 162.728 87.8249C162.728 87.2005 162.589 86.6594 162.325 86.16C162.046 85.6744 161.685 85.2997 161.198 85.0223C160.725 84.7448 160.182 84.6199 159.597 84.6199C159.013 84.6199 158.47 84.7586 157.997 85.0223C157.524 85.2997 157.149 85.6744 156.87 86.16C156.592 86.6456 156.467 87.2005 156.467 87.8249C156.467 88.4492 156.606 88.9903 156.87 89.4898C157.149 89.9754 157.524 90.35 157.997 90.6275C158.47 90.905 159.013 91.0299 159.597 91.0299C160.182 91.0299 160.725 90.8911 161.198 90.6275Z" fill="#B1B1B1"/>
<path d="M176.016 82.8301V92.8335H174.11L169.115 86.7565V92.8335H166.819V82.8301H168.739L173.72 88.9071V82.8301H176.016Z" fill="#B1B1B1"/>
<path d="M190.877 92.8335V86.8259L187.913 91.7651H186.87L183.934 86.9507V92.8196H181.749V82.8162H183.669L187.426 89.0319L191.127 82.8162H193.034L193.061 92.8196H190.877V92.8335Z" fill="#005F7F"/>
<path d="M197.472 92.3341C196.637 91.8901 195.983 91.2657 195.51 90.4888C195.037 89.6979 194.801 88.8238 194.801 87.8388C194.801 86.8537 195.037 85.9796 195.51 85.1888C195.983 84.3979 196.637 83.7874 197.472 83.3435C198.307 82.8995 199.253 82.6775 200.283 82.6775C201.313 82.6775 202.259 82.8995 203.094 83.3435C203.929 83.7874 204.583 84.4118 205.056 85.1888C205.529 85.9796 205.779 86.8537 205.779 87.8388C205.779 88.8238 205.543 89.6979 205.056 90.4888C204.583 91.2796 203.929 91.8901 203.094 92.3341C202.259 92.778 201.327 93 200.283 93C199.239 93 198.307 92.778 197.472 92.3341ZM201.897 90.6275C202.37 90.35 202.746 89.9754 203.024 89.4898C203.302 89.0042 203.428 88.4492 203.428 87.8249C203.428 87.2005 203.289 86.6594 203.024 86.16C202.746 85.6744 202.37 85.2997 201.897 85.0223C201.424 84.7448 200.881 84.6199 200.297 84.6199C199.713 84.6199 199.17 84.7586 198.697 85.0223C198.224 85.2997 197.848 85.6744 197.57 86.16C197.291 86.6456 197.166 87.2005 197.166 87.8249C197.166 88.4492 197.305 88.9903 197.57 89.4898C197.848 89.9754 198.21 90.35 198.697 90.6275C199.17 90.905 199.713 91.0299 200.297 91.0299C200.881 91.0299 201.424 90.8911 201.897 90.6275Z" fill="#005F7F"/>
<path d="M209.856 84.717H206.642V82.8301H215.38V84.717H212.166V92.8335H209.842V84.717H209.856Z" fill="#005F7F"/>
<path d="M217.676 82.8301H220V92.8335H217.676V82.8301Z" fill="#005F7F"/>
<path d="M224.076 92.3341C223.242 91.8901 222.588 91.2657 222.115 90.4888C221.641 89.7118 221.405 88.8238 221.405 87.8388C221.405 86.8537 221.641 85.9796 222.115 85.1888C222.588 84.3979 223.242 83.7874 224.076 83.3435C224.911 82.8995 225.857 82.6775 226.887 82.6775C227.917 82.6775 228.863 82.8995 229.698 83.3435C230.533 83.7874 231.187 84.4118 231.66 85.1888C232.133 85.9796 232.383 86.8537 232.383 87.8388C232.383 88.8238 232.147 89.6979 231.66 90.4888C231.187 91.2796 230.533 91.8901 229.698 92.3341C228.863 92.778 227.931 93 226.887 93C225.844 93 224.911 92.778 224.076 92.3341ZM228.501 90.6275C228.974 90.35 229.35 89.9754 229.628 89.4898C229.907 89.0042 230.032 88.4492 230.032 87.8249C230.032 87.2005 229.893 86.6594 229.628 86.16C229.35 85.6744 228.974 85.2997 228.501 85.0223C228.028 84.7448 227.485 84.6199 226.901 84.6199C226.317 84.6199 225.774 84.7586 225.301 85.0223C224.828 85.2997 224.452 85.6744 224.174 86.16C223.896 86.6456 223.77 87.2005 223.77 87.8249C223.77 88.4492 223.909 88.9903 224.174 89.4898C224.452 89.9754 224.814 90.35 225.301 90.6275C225.774 90.905 226.317 91.0299 226.901 91.0299C227.485 91.0299 228.028 90.8911 228.501 90.6275Z" fill="#005F7F"/>
<path d="M243 82.8301V92.8335H241.094L236.098 86.7565V92.8335H233.803V82.8301H235.723L240.704 88.9071V82.8301H243Z" fill="#005F7F"/>
<path d="M185.854 9.18479C185.228 9.78139 184.254 9.78139 183.628 9.18479C162.227 -10.8359 126.509 4.17614 126.509 33.9228V71.6057C126.509 72.4797 127.219 73.2012 128.109 73.2012H144.292C145.168 73.2012 145.892 72.4936 145.892 71.6057V34.3946C145.892 26.8053 151.541 20.1456 159.124 19.4935C167.737 18.7442 174.945 25.4872 174.945 33.9228V46.7566C174.945 47.6307 175.655 48.3383 176.531 48.3383H193.006C193.882 48.3383 194.606 47.6307 194.606 46.7427V34.3807C194.606 26.7914 200.255 20.1317 207.838 19.4796C216.451 18.7304 223.659 25.4733 223.659 33.9089V71.5918C223.659 72.4659 224.369 73.1873 225.259 73.1873H241.442C242.318 73.1873 243.042 72.4797 243.042 71.5918V33.9089C243.042 4.16226 207.296 -10.8359 185.882 9.17091L185.854 9.18479Z" fill="#007481"/>
<path d="M192.644 53.6384H176.837C175.784 53.6384 174.931 54.4894 174.931 55.5392V71.3005C174.931 72.3503 175.784 73.2013 176.837 73.2013H192.644C193.697 73.2013 194.55 72.3503 194.55 71.3005V55.5392C194.55 54.4894 193.697 53.6384 192.644 53.6384Z" fill="#57B6B2"/>
<path d="M17.713 53.6384H1.90626C0.853464 53.6384 0 54.4894 0 55.5392V71.3005C0 72.3503 0.853464 73.2013 1.90626 73.2013H17.713C18.7658 73.2013 19.6192 72.3503 19.6192 71.3005V55.5392C19.6192 54.4894 18.7658 53.6384 17.713 53.6384Z" fill="#009ABF"/>
<path d="M0 46.7151V44.3565C0 20.6729 18.6174 0.652181 42.3692 0.0139594C66.9975 -0.652011 87.1594 19.0496 87.1594 43.4547V71.6058C87.1594 72.4799 86.4498 73.2013 85.5593 73.2013H69.3769C68.5003 73.2013 67.7767 72.4937 67.7767 71.6058V44.1484C67.7767 31.162 57.8002 19.9792 44.7903 19.341C30.8898 18.6611 19.3548 29.7329 19.3548 43.4547V46.7151C19.3548 47.5892 18.6452 48.3107 17.7547 48.3107H1.60015C0.709631 48.2968 0 47.5892 0 46.7151Z" fill="#005F7F"/>
<path d="M97.0525 71.6058V30.0381C97.0525 29.164 97.7621 28.4564 98.6387 28.4564H115.072C115.948 28.4564 116.672 29.164 116.672 30.052V71.6196C116.672 72.4937 115.962 73.2152 115.072 73.2152H98.6387C97.7621 73.2152 97.0386 72.5076 97.0386 71.6196L97.0525 71.6058Z" fill="#898A8D"/>
<path d="M114.765 3.66284H98.9588C97.906 3.66284 97.0525 4.51385 97.0525 5.56363V21.3249C97.0525 22.3747 97.906 23.2257 98.9588 23.2257H114.765C115.818 23.2257 116.672 22.3747 116.672 21.3249V5.56363C116.672 4.51385 115.818 3.66284 114.765 3.66284Z" fill="#B1B1B1"/>
</g>
<defs>
<clipPath id="clip0_2_4">
<rect width="243" height="93" fill="white"/>
</clipPath>
</defs>
</svg>
