<svg width="101" height="39" viewBox="0 0 101 39" fill="none" xmlns="http://www.w3.org/2000/svg">
<g clip-path="url(#clip0_37_503)">
<path d="M3.82278 34.7352V38.9302H3.03046L0.954249 36.3818V38.9302H0V34.7352H0.798099L2.86853 37.2836V34.7352H3.82278Z" fill="white"/>
<path d="M5.27434 38.5055C4.94469 38.1738 4.77698 37.7026 4.77698 37.0858V34.7352H5.74279V37.0509C5.74279 37.8015 6.05509 38.1797 6.67391 38.1797C6.97464 38.1797 7.20597 38.0866 7.36212 37.9062C7.51827 37.7258 7.59924 37.4407 7.59924 37.0509V34.7352H8.55349V37.0858C8.55349 37.7026 8.38577 38.1738 8.05612 38.5055C7.72647 38.8371 7.26381 39.0059 6.66234 39.0059C6.06088 39.0059 5.60399 38.8429 5.26856 38.5055H5.27434Z" fill="white"/>
<path d="M13.3017 38.9302V36.4109L12.0698 38.4822H11.6361L10.4158 36.4632V38.9244H9.50781V34.7294H10.3059L11.8674 37.336L13.4058 34.7294H14.1981L14.2097 38.9244H13.3017V38.9302Z" fill="white"/>
<path d="M18.7842 37.1265C18.9172 37.3069 18.9866 37.5222 18.9866 37.784C18.9866 38.1506 18.8421 38.4357 18.5587 38.6335C18.2753 38.8313 17.8589 38.9302 17.3153 38.9302H15.1581V34.7352H17.1938C17.7027 34.7352 18.0902 34.8341 18.362 35.0261C18.6339 35.224 18.7727 35.4858 18.7727 35.8232C18.7727 36.0269 18.7264 36.2073 18.6281 36.3702C18.5298 36.5331 18.3967 36.6553 18.2175 36.7484C18.4546 36.824 18.6396 36.952 18.7784 37.1265H18.7842ZM16.1239 35.4625V36.4516H17.0839C17.321 36.4516 17.5003 36.4109 17.6276 36.3236C17.7548 36.2363 17.8126 36.1142 17.8126 35.9513C17.8126 35.7883 17.749 35.6662 17.6276 35.5847C17.5061 35.5032 17.321 35.4625 17.0839 35.4625H16.1239ZM17.8242 38.0691C17.9514 37.9877 18.015 37.8538 18.015 37.6793C18.015 37.3302 17.7606 37.1556 17.2459 37.1556H16.1181V38.1913H17.2459C17.5003 38.1913 17.6912 38.1506 17.8184 38.0633L17.8242 38.0691Z" fill="white"/>
<path d="M22.983 38.1506V38.9302H19.7559V34.7352H22.9078V35.5149H20.7159V36.4284H22.6533V37.1847H20.7159V38.1564H22.983V38.1506Z" fill="white"/>
<path d="M26.5917 38.9302L25.7878 37.7607H24.903V38.9302H23.9371V34.7352H25.7415C26.1117 34.7352 26.4297 34.7992 26.7016 34.9214C26.9734 35.0436 27.1816 35.2181 27.3319 35.4509C27.4765 35.6778 27.5517 35.9454 27.5517 36.2596C27.5517 36.5738 27.4765 36.8414 27.3262 37.0684C27.1758 37.2953 26.9676 37.4698 26.69 37.5862L27.6269 38.936H26.5917V38.9302ZM26.3488 35.7127C26.1984 35.5847 25.9786 35.5265 25.6895 35.5265H24.903V36.9869H25.6895C25.9786 36.9869 26.1984 36.9229 26.3488 36.7949C26.4991 36.6669 26.5743 36.4865 26.5743 36.2538C26.5743 36.0211 26.4991 35.8349 26.3488 35.7127Z" fill="white"/>
<path d="M28.7663 38.8662C28.4598 38.7789 28.2111 38.6567 28.026 38.5171L28.3557 37.784C28.5349 37.9178 28.7489 38.0226 28.9918 38.104C29.2405 38.1855 29.4834 38.2262 29.7321 38.2262C30.0039 38.2262 30.2063 38.1855 30.3393 38.104C30.4723 38.0226 30.536 37.912 30.536 37.7782C30.536 37.6793 30.4955 37.5978 30.4203 37.528C30.3451 37.464 30.241 37.4116 30.1253 37.3709C30.0039 37.3302 29.842 37.2895 29.6338 37.2371C29.3157 37.1615 29.0554 37.0858 28.853 37.0102C28.6506 36.9345 28.4771 36.8124 28.3325 36.6436C28.1879 36.4749 28.1128 36.2538 28.1128 35.9745C28.1128 35.7302 28.1764 35.5091 28.3094 35.3112C28.4424 35.1134 28.639 34.9563 28.8993 34.84C29.1653 34.7236 29.4834 34.6654 29.8651 34.6654C30.1311 34.6654 30.3914 34.7003 30.6458 34.7585C30.9003 34.8225 31.1201 34.9156 31.3109 35.032L31.016 35.7709C30.6285 35.5498 30.2468 35.4392 29.8593 35.4392C29.5875 35.4392 29.3909 35.4858 29.2579 35.5731C29.1248 35.6603 29.067 35.7767 29.067 35.9222C29.067 36.0676 29.1422 36.1723 29.2926 36.2422C29.4429 36.312 29.6685 36.3818 29.975 36.4516C30.2931 36.5273 30.5533 36.6029 30.7557 36.6785C30.9581 36.7542 31.1316 36.8764 31.2762 37.0393C31.4208 37.2022 31.496 37.4233 31.496 37.7026C31.496 37.9411 31.4266 38.1622 31.2994 38.36C31.1663 38.5578 30.9639 38.7149 30.6979 38.8313C30.4319 38.9477 30.108 39.0058 29.7263 39.0058C29.3967 39.0058 29.0786 38.9593 28.7721 38.872L28.7663 38.8662Z" fill="white"/>
<path d="M33.5723 34.7352H34.5381V38.9302H33.5723V34.7352Z" fill="white"/>
<path d="M39.3498 34.7352V38.9302H38.5574L36.4812 36.3818V38.9302H35.527V34.7352H36.3251L38.3955 37.2836V34.7352H39.3498Z" fill="white"/>
<path d="M44.1267 34.7352V38.9302H43.3344L41.2582 36.3818V38.9302H40.304V34.7352H41.1021L43.1725 37.2836V34.7352H44.1267Z" fill="white"/>
<path d="M46.0005 38.7207C45.6535 38.5345 45.3817 38.2727 45.1851 37.9468C44.9885 37.621 44.8901 37.2486 44.8901 36.8355C44.8901 36.4224 44.9885 36.0559 45.1851 35.7243C45.3817 35.3926 45.6535 35.1366 46.0005 34.9504C46.3475 34.7642 46.7408 34.6711 47.1688 34.6711C47.5967 34.6711 47.99 34.7642 48.337 34.9504C48.684 35.1366 48.9558 35.3984 49.1524 35.7243C49.3491 36.0559 49.4474 36.4224 49.4474 36.8355C49.4474 37.2486 49.3491 37.6152 49.1524 37.9468C48.9558 38.2785 48.684 38.5345 48.337 38.7207C47.99 38.9069 47.6025 38.9999 47.1688 38.9999C46.735 38.9999 46.3475 38.9069 46.0005 38.7207ZM47.8396 38.005C48.0363 37.8887 48.1924 37.7316 48.3081 37.5279C48.4237 37.3243 48.4758 37.0916 48.4758 36.8297C48.4758 36.5679 48.418 36.341 48.3081 36.1315C48.1924 35.9279 48.042 35.7708 47.8396 35.6544C47.643 35.5381 47.4174 35.4857 47.1745 35.4857C46.9316 35.4857 46.7061 35.5439 46.5095 35.6544C46.3128 35.7708 46.1567 35.9279 46.041 36.1315C45.9254 36.3352 45.8733 36.5679 45.8733 36.8297C45.8733 37.0916 45.9311 37.3185 46.041 37.5279C46.1567 37.7316 46.3128 37.8887 46.5095 38.005C46.7061 38.1214 46.9316 38.1738 47.1745 38.1738C47.4174 38.1738 47.643 38.1156 47.8396 38.005Z" fill="white"/>
<path d="M54.1146 34.7352L52.3102 38.9302H51.356L49.5574 34.7352H50.5984L51.8649 37.7316L53.1488 34.7352H54.1088H54.1146Z" fill="white"/>
<path d="M56.7692 38.0284H54.8317L54.4616 38.9302H53.4727L55.3291 34.7352H56.2834L58.1456 38.9302H57.1335L56.7634 38.0284H56.7692ZM56.4626 37.2895L55.8033 35.6836L55.144 37.2895H56.4684H56.4626Z" fill="white"/>
<path d="M59.1287 35.5265H57.7927V34.7352H61.4247V35.5265H60.0887V38.9302H59.1229V35.5265H59.1287Z" fill="white"/>
<path d="M62.3848 34.7352H63.3506V38.9302H62.3848V34.7352Z" fill="white"/>
<path d="M65.1607 38.7207C64.8137 38.5345 64.5419 38.2727 64.3452 37.9468C64.1486 37.621 64.0503 37.2486 64.0503 36.8355C64.0503 36.4224 64.1486 36.0559 64.3452 35.7243C64.5419 35.3926 64.8137 35.1366 65.1607 34.9504C65.5077 34.7642 65.901 34.6711 66.3289 34.6711C66.7569 34.6711 67.1502 34.7642 67.4972 34.9504C67.8442 35.1366 68.116 35.3984 68.3126 35.7243C68.5092 36.0559 68.6076 36.4224 68.6076 36.8355C68.6076 37.2486 68.5092 37.6152 68.3126 37.9468C68.116 38.2785 67.8442 38.5345 67.4972 38.7207C67.1502 38.9069 66.7627 38.9999 66.3289 38.9999C65.8952 38.9999 65.5077 38.9069 65.1607 38.7207ZM66.9998 38.005C67.1964 37.8887 67.3526 37.7316 67.4682 37.5279C67.5839 37.3243 67.636 37.0916 67.636 36.8297C67.636 36.5679 67.5781 36.341 67.4682 36.1315C67.3526 35.9279 67.2022 35.7708 66.9998 35.6544C66.8032 35.5381 66.5776 35.4857 66.3347 35.4857C66.0918 35.4857 65.8663 35.5439 65.6696 35.6544C65.473 35.7708 65.3168 35.9279 65.2012 36.1315C65.0855 36.3352 65.0335 36.5679 65.0335 36.8297C65.0335 37.0916 65.0913 37.3185 65.2012 37.5279C65.3168 37.7316 65.473 37.8887 65.6696 38.005C65.8663 38.1214 66.0918 38.1738 66.3347 38.1738C66.5776 38.1738 66.8032 38.1156 66.9998 38.005Z" fill="white"/>
<path d="M73.1591 34.7352V38.9302H72.3668L70.2906 36.3818V38.9302H69.3363V34.7352H70.1344L72.2048 37.2836V34.7352H73.1591Z" fill="white"/>
<path d="M79.3356 38.9302V36.4109L78.1038 38.4822H77.67L76.4497 36.4632V38.9244H75.5417V34.7294H76.3398L77.9013 37.336L79.4397 34.7294H80.232L80.2436 38.9244H79.3356V38.9302Z" fill="white"/>
<path d="M82.077 38.7207C81.73 38.5345 81.4581 38.2727 81.2615 37.9468C81.0649 37.6152 80.9666 37.2486 80.9666 36.8355C80.9666 36.4224 81.0649 36.0559 81.2615 35.7243C81.4581 35.3926 81.73 35.1366 82.077 34.9504C82.4239 34.7642 82.8172 34.6711 83.2452 34.6711C83.6732 34.6711 84.0664 34.7642 84.4134 34.9504C84.7604 35.1366 85.0322 35.3984 85.2289 35.7243C85.4255 36.0559 85.5296 36.4224 85.5296 36.8355C85.5296 37.2486 85.4313 37.6152 85.2289 37.9468C85.0322 38.2785 84.7604 38.5345 84.4134 38.7207C84.0664 38.9069 83.6789 38.9999 83.2452 38.9999C82.8114 38.9999 82.4239 38.9069 82.077 38.7207ZM83.9161 38.005C84.1127 37.8887 84.2688 37.7316 84.3845 37.5279C84.5002 37.3243 84.5522 37.0916 84.5522 36.8297C84.5522 36.5679 84.4944 36.341 84.3845 36.1315C84.2688 35.9279 84.1127 35.7708 83.9161 35.6544C83.7194 35.5381 83.4939 35.4857 83.251 35.4857C83.0081 35.4857 82.7825 35.5439 82.5859 35.6544C82.3893 35.7708 82.2331 35.9279 82.1174 36.1315C82.0018 36.3352 81.9497 36.5679 81.9497 36.8297C81.9497 37.0916 82.0076 37.3185 82.1174 37.5279C82.2331 37.7316 82.3835 37.8887 82.5859 38.005C82.7825 38.1214 83.0081 38.1738 83.251 38.1738C83.4939 38.1738 83.7194 38.1156 83.9161 38.005Z" fill="white"/>
<path d="M87.2241 35.5265H85.8882V34.7352H89.5201V35.5265H88.1842V38.9302H87.2184V35.5265H87.2241Z" fill="white"/>
<path d="M90.4744 34.7352H91.4402V38.9302H90.4744V34.7352Z" fill="white"/>
<path d="M93.1347 38.7207C92.7877 38.5345 92.5159 38.2727 92.3192 37.9468C92.1226 37.621 92.0243 37.2486 92.0243 36.8355C92.0243 36.4224 92.1226 36.0559 92.3192 35.7243C92.5159 35.3926 92.7877 35.1366 93.1347 34.9504C93.4817 34.7642 93.875 34.6711 94.3029 34.6711C94.7309 34.6711 95.1242 34.7642 95.4712 34.9504C95.8182 35.1366 96.09 35.3984 96.2866 35.7243C96.4832 36.0559 96.5873 36.4224 96.5873 36.8355C96.5873 37.2486 96.489 37.6152 96.2866 37.9468C96.09 38.2785 95.8182 38.5345 95.4712 38.7207C95.1242 38.9069 94.7367 38.9999 94.3029 38.9999C93.8692 38.9999 93.4817 38.9069 93.1347 38.7207ZM94.9738 38.005C95.1704 37.8887 95.3266 37.7316 95.4422 37.5279C95.5579 37.3243 95.61 37.0916 95.61 36.8297C95.61 36.5679 95.5521 36.341 95.4422 36.1315C95.3266 35.9279 95.1704 35.7708 94.9738 35.6544C94.7772 35.5381 94.5516 35.4857 94.3087 35.4857C94.0658 35.4857 93.8403 35.5439 93.6436 35.6544C93.447 35.7708 93.2908 35.9279 93.1752 36.1315C93.0595 36.3352 93.0075 36.5679 93.0075 36.8297C93.0075 37.0916 93.0653 37.3185 93.1752 37.5279C93.2908 37.7316 93.4412 37.8887 93.6436 38.005C93.8403 38.1214 94.0658 38.1738 94.3087 38.1738C94.5516 38.1738 94.7772 38.1156 94.9738 38.005Z" fill="white"/>
<path d="M101 34.7352V38.9302H100.208L98.1315 36.3818V38.9302H97.1772V34.7352H97.9753L100.046 37.2836V34.7352H101Z" fill="white"/>
<path d="M77.2479 3.85174C76.9877 4.10193 76.5828 4.10193 76.3226 3.85174C67.4278 -4.54405 52.582 1.75134 52.582 14.2258V30.0282C52.582 30.3948 52.877 30.6973 53.2471 30.6973H59.9731C60.3375 30.6973 60.6382 30.4006 60.6382 30.0282V14.4236C60.6382 11.241 62.9862 8.44819 66.1381 8.17473C69.718 7.86054 72.7138 10.6882 72.7138 14.2258V19.6077C72.7138 19.9742 73.0087 20.271 73.3731 20.271H80.2206C80.5849 20.271 80.8856 19.9742 80.8856 19.6019V14.4178C80.8856 11.2352 83.2337 8.44237 86.3856 8.16891C89.9655 7.85472 92.9612 10.6824 92.9612 14.2199V30.0224C92.9612 30.389 93.2562 30.6915 93.6263 30.6915H100.352C100.717 30.6915 101.017 30.3948 101.017 30.0224V14.2199C101.017 1.74552 86.16 -4.54405 77.2595 3.84592L77.2479 3.85174Z" fill="white"/>
<path d="M80.0702 22.4935H73.5003C73.0627 22.4935 72.708 22.8504 72.708 23.2906V29.9002C72.708 30.3404 73.0627 30.6973 73.5003 30.6973H80.0702C80.5078 30.6973 80.8625 30.3404 80.8625 29.9002V23.2906C80.8625 22.8504 80.5078 22.4935 80.0702 22.4935Z" fill="white"/>
<path d="M7.36217 22.4935H0.792316C0.354732 22.4935 0 22.8504 0 23.2906V29.9002C0 30.3404 0.354732 30.6973 0.792316 30.6973H7.36217C7.79976 30.6973 8.15449 30.3404 8.15449 29.9002V23.2906C8.15449 22.8504 7.79976 22.4935 7.36217 22.4935Z" fill="white"/>
<path d="M0 19.5898V18.6007C0 8.66885 7.73809 0.273054 17.6102 0.00541291C27.8467 -0.273865 36.2268 7.98811 36.2268 18.2225V30.0278C36.2268 30.3943 35.9318 30.6969 35.5617 30.6969H28.8357C28.4713 30.6969 28.1706 30.4002 28.1706 30.0278V18.5134C28.1706 13.0675 24.0239 8.37793 18.6165 8.11029C12.839 7.8252 8.04461 12.4682 8.04461 18.2225V19.5898C8.04461 19.9563 7.74966 20.2589 7.37952 20.2589H0.665082C0.29495 20.2531 0 19.9563 0 19.5898Z" fill="white"/>
<path d="M40.3387 30.0282V12.5966C40.3387 12.2301 40.6336 11.9333 40.998 11.9333H47.8281C48.1924 11.9333 48.4932 12.2301 48.4932 12.6025V30.0341C48.4932 30.4006 48.1982 30.7032 47.8281 30.7032H40.998C40.6336 30.7032 40.3329 30.4064 40.3329 30.0341L40.3387 30.0282Z" fill="white"/>
<path d="M47.7009 1.53601H41.1311C40.6935 1.53601 40.3387 1.89289 40.3387 2.33312V8.94269C40.3387 9.38292 40.6935 9.7398 41.1311 9.7398H47.7009C48.1385 9.7398 48.4932 9.38292 48.4932 8.94269V2.33312C48.4932 1.89289 48.1385 1.53601 47.7009 1.53601Z" fill="white"/>
</g>
<defs>
<clipPath id="clip0_37_503">
<rect width="101" height="39" fill="white"/>
</clipPath>
</defs>
</svg>
