<svg width="118" height="77" viewBox="0 0 118 77" fill="none" xmlns="http://www.w3.org/2000/svg">
<g clip-path="url(#clip0_37_537)">
<path d="M75.9707 22.9243H78.326V34.2599H85.4298V36.3965H75.9707V22.9243Z" fill="white"/>
<path d="M92.4955 22.9402H90.1403V36.4124H92.4955V22.9402Z" fill="white"/>
<path d="M29.742 7.24259C31.9481 7.24259 33.3701 5.53957 33.3701 3.63079V3.61496C33.3701 1.70302 31.9481 0 29.742 0C27.536 0 26.1076 1.70302 26.1076 3.61496V3.63079C26.1076 5.54273 27.5328 7.24259 29.742 7.24259Z" fill="white"/>
<path d="M55.8496 7.24259C58.0557 7.24259 59.4777 5.53957 59.4777 3.63079V3.61496C59.4777 1.70302 58.0557 0 55.8496 0C53.6436 0 52.2152 1.70302 52.2152 3.61496V3.63079C52.2152 5.54273 53.6404 7.24259 55.8496 7.24259Z" fill="white"/>
<path d="M3.63761 7.24259C5.84366 7.24259 7.26569 5.53957 7.26569 3.63079V3.61496C7.26569 1.70302 5.84048 0 3.63761 0C1.43473 0 0 1.70302 0 3.61496V3.63079C0 5.53957 1.42838 7.24259 3.63761 7.24259Z" fill="white"/>
<path d="M29.742 33.2754C31.9481 33.2754 33.3701 31.5724 33.3701 29.6636V29.6478C33.3701 27.7359 31.9481 26.0328 29.742 26.0328C27.536 26.0328 26.1076 27.7359 26.1076 29.6478V29.6636C26.1076 31.5756 27.5328 33.2754 29.742 33.2754Z" fill="white"/>
<path d="M3.63761 33.2754C5.84366 33.2754 7.26569 31.5724 7.26569 29.6636V29.6478C7.26569 27.7359 5.84366 26.0328 3.63761 26.0328C1.43155 26.0328 0 27.7359 0 29.6478V29.6636C0 31.5756 1.4252 33.2754 3.63443 33.2754" fill="white"/>
<path d="M55.8496 33.2754C58.0557 33.2754 59.4777 31.5724 59.4777 29.6636V29.6478C59.4777 27.7359 58.0557 26.0328 55.8496 26.0328C53.6436 26.0328 52.2152 27.7359 52.2152 29.6478V29.6636C52.2152 31.5756 53.6404 33.2754 55.8496 33.2754Z" fill="white"/>
<path d="M29.742 59.3113C31.9481 59.3113 33.3701 57.6083 33.3701 55.6995V55.6837C33.3701 53.7717 31.9481 52.0687 29.742 52.0687C27.536 52.0687 26.1076 53.7717 26.1076 55.6837V55.6995C26.1076 57.6115 27.5328 59.3113 29.742 59.3113Z" fill="white"/>
<path d="M3.63761 59.3113C5.84366 59.3113 7.26569 57.6083 7.26569 55.6995V55.6837C7.26569 53.7717 5.84366 52.0687 3.63761 52.0687C1.43155 52.0687 0 53.7717 0 55.6837V55.6995C0 57.6115 1.4252 59.3113 3.63443 59.3113" fill="white"/>
<path d="M55.8496 59.3113C58.0557 59.3113 59.4777 57.6083 59.4777 55.6995V55.6837C59.4777 53.7717 58.0557 52.0687 55.8496 52.0687C53.6436 52.0687 52.2152 53.7717 52.2152 55.6837V55.6995C52.2152 57.6115 53.6404 59.3113 55.8496 59.3113Z" fill="white"/>
<path d="M105.735 13.6906H103.224L101.856 10.4365H95.4665L94.0762 13.6906H91.6448L97.5869 0.123413H99.7866L105.732 13.6938L105.735 13.6906ZM98.6502 2.95018L96.3331 8.3378H100.983L98.647 2.95018H98.6502Z" fill="white"/>
<path d="M87.001 12.646C86.5979 12.9024 86.1598 13.1272 85.6901 13.3203C85.2203 13.5134 84.7156 13.6653 84.1728 13.7729C83.6332 13.8806 83.065 13.9376 82.4746 13.9376C81.4208 13.9376 80.4622 13.7603 79.5988 13.4089C78.7354 13.0544 77.999 12.5701 77.3896 11.9465C76.777 11.326 76.304 10.5885 75.9707 9.74331C75.6343 8.89496 75.4692 7.98014 75.4692 6.99252C75.4692 6.00489 75.6374 5.14389 75.9803 4.29871C76.3199 3.45036 76.7992 2.70964 77.4182 2.07655C78.0339 1.44029 78.7704 0.936978 79.6274 0.566619C80.4844 0.186763 81.4208 0 82.4365 0C83.0269 0 83.5665 0.0411511 84.049 0.123453C84.5315 0.208921 84.979 0.326043 85.3917 0.481151C85.8043 0.636259 86.1916 0.826187 86.5566 1.04777C86.9248 1.27252 87.2803 1.53209 87.6263 1.82647L86.1217 3.61813C85.8646 3.39971 85.6012 3.20029 85.3314 3.01986C85.0616 2.83942 84.7791 2.69065 84.4807 2.56719C84.1855 2.44374 83.8586 2.34878 83.5062 2.27914C83.1507 2.2095 82.7635 2.17151 82.3381 2.17151C81.7192 2.17151 81.1446 2.29813 80.6114 2.5482C80.0781 2.79827 79.6147 3.14331 79.2211 3.58014C78.8275 4.01698 78.5196 4.52662 78.2942 5.10273C78.0689 5.68201 77.9578 6.29928 77.9578 6.95453C77.9578 7.64777 78.0657 8.29352 78.2847 8.8823C78.5037 9.47425 78.8148 9.98389 79.2211 10.4144C79.6274 10.8449 80.1099 11.1836 80.6685 11.4273C81.2303 11.6711 81.8557 11.7945 82.5508 11.7945C83.1952 11.7945 83.7951 11.6996 84.3537 11.5128C84.9156 11.326 85.398 11.0791 85.8107 10.7689V8.23338H82.3572V6.17266H88.1088V11.8325C87.7723 12.1142 87.4041 12.3833 86.9978 12.6397" fill="white"/>
<path d="M75.9707 45.6017H78.326V56.9404H85.4298V59.0771H75.9707V45.6017Z" fill="white"/>
<path d="M117.476 55.0158C117.13 55.8641 116.641 56.6049 116.01 57.2411C115.378 57.8774 114.632 58.3807 113.769 58.751C112.905 59.1246 111.953 59.3082 110.912 59.3082C109.871 59.3082 108.916 59.1246 108.055 58.7605C107.192 58.3933 106.452 57.8995 105.837 57.2696C105.218 56.6397 104.735 55.9021 104.389 55.0569C104.043 54.2086 103.869 53.3128 103.869 52.3631C103.869 51.4135 104.043 50.5145 104.389 49.6662C104.738 48.821 105.227 48.0771 105.856 47.444C106.487 46.8077 107.233 46.3044 108.093 45.9341C108.957 45.5605 109.906 45.3738 110.95 45.3738C111.994 45.3738 112.944 45.5574 113.807 45.9214C114.67 46.2886 115.41 46.7856 116.026 47.4123C116.645 48.0423 117.127 48.7798 117.473 49.625C117.822 50.4702 117.997 51.3692 117.997 52.3188C117.997 53.2685 117.822 54.1674 117.473 55.0126M115.169 50.4987C114.943 49.9162 114.629 49.4066 114.223 48.9698C113.816 48.5361 113.331 48.1879 112.766 47.9315C112.201 47.6751 111.582 47.5453 110.915 47.5453C110.249 47.5453 109.633 47.6687 109.071 47.9188C108.512 48.1689 108.033 48.5076 107.633 48.9381C107.236 49.3686 106.922 49.8751 106.697 50.4575C106.471 51.04 106.36 51.6604 106.36 52.3157C106.36 52.9709 106.471 53.5882 106.697 54.1738C106.922 54.7594 107.236 55.269 107.643 55.7027C108.049 56.1395 108.535 56.4877 109.1 56.741C109.665 56.9974 110.284 57.1272 110.953 57.1272C111.623 57.1272 112.236 57.0005 112.794 56.7505C113.356 56.5004 113.835 56.1617 114.232 55.7312C114.632 55.3007 114.943 54.7942 115.169 54.2118C115.394 53.6262 115.505 53.0089 115.505 52.3536C115.505 51.6984 115.391 51.0811 115.169 50.4955" fill="white"/>
<path d="M100.234 47.7384H92.5907V51.2046H99.3644V53.3381H92.5907V56.9404H100.329V59.0771H90.2355V45.6017H100.234V47.7384Z" fill="white"/>
<path d="M3.58364 71.049H4.68191L2.81549 75.6294H1.87594L0 71.049H1.12366L2.34889 74.3885L3.58364 71.049Z" fill="white"/>
<path d="M8.18936 69.3585H9.31937V70.3493H8.18936V69.3585ZM8.2338 71.0489H9.28763V75.5977H8.2338V71.0489Z" fill="white"/>
<path d="M16.4454 74.8823C16.3597 75.0595 16.2391 75.2083 16.0867 75.3254C15.9344 75.4425 15.7535 75.5312 15.5471 75.5913C15.3408 75.6515 15.1186 75.6831 14.8837 75.6831C14.5536 75.6831 14.2235 75.6261 13.887 75.509C13.5506 75.3951 13.2363 75.2241 12.9507 75.0025L13.4173 74.2935C13.6648 74.4771 13.9156 74.6164 14.1727 74.7113C14.4298 74.8063 14.6742 74.8538 14.9123 74.8538C15.1504 74.8538 15.3122 74.8094 15.436 74.7208C15.5598 74.6322 15.6233 74.5119 15.6233 74.3631V74.3473C15.6233 74.2618 15.5947 74.1858 15.5408 74.1225C15.4868 74.0592 15.4106 74.0054 15.3154 73.9548C15.2202 73.9041 15.1123 73.863 14.9885 73.825C14.8647 73.787 14.7377 73.749 14.6044 73.711C14.4362 73.6572 14.2679 73.6002 14.0997 73.5401C13.9283 73.4768 13.7759 73.3945 13.6426 73.2932C13.5061 73.1919 13.395 73.0684 13.3093 72.9228C13.2236 72.7772 13.1792 72.5936 13.1792 72.3752V72.3594C13.1792 72.1473 13.2205 71.9542 13.303 71.7833C13.3855 71.6123 13.503 71.4635 13.649 71.3433C13.795 71.223 13.9696 71.1312 14.1664 71.0679C14.3663 71.0046 14.5758 70.9729 14.8012 70.9729C15.09 70.9729 15.3821 71.0204 15.6741 71.1122C15.9693 71.204 16.2359 71.3306 16.4772 71.492L16.0613 72.2328C15.8423 72.0998 15.6201 71.9953 15.3979 71.9162C15.1758 71.8371 14.9663 71.7991 14.7758 71.7991C14.5727 71.7991 14.4171 71.8434 14.306 71.9289C14.1949 72.0143 14.1378 72.1251 14.1378 72.2549V72.2707C14.1378 72.353 14.1664 72.4227 14.2235 72.4828C14.2806 72.543 14.3568 72.5968 14.452 72.6474C14.5473 72.6981 14.6552 72.7424 14.779 72.7867C14.9028 72.831 15.0297 72.8722 15.1631 72.9102C15.3313 72.964 15.4963 73.021 15.6646 73.0906C15.8328 73.1602 15.982 73.2457 16.1185 73.3438C16.255 73.4451 16.3661 73.5686 16.4518 73.711C16.5375 73.8535 16.5819 74.0276 16.5819 74.2365V74.2555C16.5819 74.4961 16.5375 74.705 16.4518 74.8823" fill="white"/>
<path d="M20.1084 69.3585H21.2384V70.3493H20.1084V69.3585ZM20.1528 71.0489H21.2067V75.5977H20.1528V71.0489Z" fill="white"/>
<path d="M29.4437 74.2429C29.3199 74.5309 29.1485 74.781 28.9326 74.9963C28.7168 75.2115 28.4597 75.3824 28.1581 75.5091C27.8597 75.6357 27.5328 75.699 27.1836 75.699C26.8345 75.699 26.5171 75.6389 26.2219 75.5122C25.9235 75.3888 25.6696 75.2178 25.4537 75.0026C25.2379 74.7873 25.0696 74.5373 24.949 74.2524C24.8284 73.9675 24.7681 73.6636 24.7681 73.3344C24.7681 73.0052 24.8316 72.6981 24.9554 72.4069C25.0792 72.1189 25.2474 71.8656 25.4632 71.6504C25.6791 71.4351 25.9362 71.2642 26.2314 71.1376C26.5266 71.0109 26.8504 70.9476 27.2027 70.9476C27.555 70.9476 27.8788 71.0078 28.174 71.1344C28.4692 71.2578 28.7263 71.4256 28.9421 71.6409C29.158 71.8561 29.3262 72.1062 29.4468 72.3942C29.5675 72.6823 29.6278 72.9894 29.6278 73.3154C29.6278 73.6414 29.5675 73.9517 29.4437 74.2366M28.4724 72.7614C28.4025 72.5842 28.3073 72.4259 28.1867 72.293C28.0629 72.16 27.9169 72.0524 27.7486 71.9764C27.5804 71.8973 27.3931 71.8593 27.1868 71.8593C26.9805 71.8593 26.7932 71.8973 26.625 71.9764C26.4568 72.0524 26.3107 72.16 26.1901 72.2898C26.0695 72.4227 25.9775 72.5747 25.914 72.7519C25.8505 72.926 25.8187 73.116 25.8187 73.3154C25.8187 73.5148 25.8537 73.7079 25.9203 73.8883C25.9902 74.0688 26.0854 74.2239 26.2092 74.3568C26.333 74.4898 26.479 74.5942 26.6472 74.6702C26.8154 74.7462 26.9995 74.7873 27.1995 74.7873C27.4122 74.7873 27.6026 74.7494 27.7709 74.6702C27.9391 74.5911 28.0851 74.4866 28.2057 74.3568C28.3263 74.2239 28.4184 74.0719 28.4819 73.8947C28.5454 73.7206 28.5771 73.5307 28.5771 73.3312C28.5771 73.1318 28.5422 72.9419 28.4755 72.7614" fill="white"/>
<path d="M34.1986 75.5946H33.1447V71.0458H34.1986V71.758C34.2748 71.6472 34.3541 71.5459 34.443 71.451C34.5319 71.356 34.6366 71.2705 34.7541 71.1946C34.8715 71.1186 35.0016 71.0584 35.1413 71.0173C35.281 70.973 35.4428 70.954 35.6206 70.954C36.138 70.954 36.5379 71.1123 36.8173 71.4256C37.0998 71.7422 37.2394 72.1664 37.2394 72.7013V75.5946H36.1856V73.0179C36.1856 72.6602 36.0999 72.3879 35.9317 72.1948C35.7634 72.0018 35.5254 71.9068 35.2175 71.9068C34.9096 71.9068 34.6715 72.0049 34.4811 72.2043C34.2938 72.4006 34.1986 72.6792 34.1986 73.0337V75.5946Z" fill="white"/>
<path d="M43.9052 75.5977V75.0374C43.7497 75.221 43.5497 75.3761 43.3084 75.5027C43.0672 75.6293 42.772 75.6926 42.426 75.6926C42.207 75.6926 42.0007 75.661 41.8039 75.6008C41.6071 75.5407 41.4357 75.4521 41.2897 75.3349C41.1437 75.2178 41.0262 75.0722 40.9342 74.8949C40.8453 74.7208 40.8008 74.5182 40.8008 74.2872V74.2713C40.8008 74.0244 40.8485 73.8092 40.9405 73.6256C41.0326 73.442 41.1595 73.29 41.3246 73.1698C41.4896 73.0495 41.6833 72.9577 41.9118 72.8975C42.1372 72.8374 42.3848 72.8089 42.6482 72.8089C42.9117 72.8089 43.1593 72.8247 43.3529 72.8595C43.5465 72.8944 43.7306 72.9387 43.9115 72.9988V72.888C43.9115 72.5715 43.8131 72.3309 43.6227 72.1631C43.4291 71.9954 43.1529 71.9131 42.7879 71.9131C42.5276 71.9131 42.2991 71.9384 42.0959 71.989C41.8928 72.0397 41.6896 72.1093 41.4833 72.1948L41.1976 71.3591C41.4515 71.242 41.7087 71.1502 41.9753 71.0837C42.2387 71.0141 42.5593 70.9792 42.9339 70.9792C43.6132 70.9792 44.1179 71.147 44.4448 71.4857C44.7717 71.8213 44.9368 72.2929 44.9368 72.9039V75.6008H43.8988L43.9052 75.5977ZM43.9306 73.6667C43.7973 73.6161 43.6417 73.5718 43.4608 73.5369C43.2799 73.5021 43.0894 73.4831 42.8863 73.4831C42.5593 73.4831 42.3022 73.5464 42.1181 73.6731C41.934 73.7997 41.842 73.9801 41.842 74.2144V74.2333C41.842 74.4518 41.9277 74.6164 42.0959 74.7335C42.2641 74.8474 42.4736 74.9044 42.7212 74.9044C42.8926 74.9044 43.0545 74.8823 43.2005 74.8348C43.3465 74.7905 43.4767 74.724 43.5846 74.6417C43.6925 74.5594 43.7782 74.4581 43.8385 74.341C43.8988 74.2239 43.9306 74.0941 43.9306 73.9485V73.6636V73.6667Z" fill="white"/>
<path d="M49.5298 75.5945H48.476V71.0458H49.5298V72.0714C49.6727 71.7263 49.879 71.451 50.1425 71.242C50.4059 71.0363 50.7424 70.9413 51.1455 70.9571V72.0619H51.0852C50.8535 72.0619 50.644 72.0999 50.4535 72.1727C50.2631 72.2486 50.098 72.3594 49.9615 72.5082C49.8219 72.657 49.7171 72.8469 49.6409 73.0717C49.5648 73.2996 49.5298 73.5623 49.5298 73.8599V75.5914V75.5945Z" fill="white"/>
<path d="M57.5288 75.7243C57.4367 75.9586 57.3415 76.158 57.2431 76.3195C57.1447 76.4809 57.0368 76.6107 56.9161 76.712C56.7955 76.8133 56.6622 76.8861 56.5194 76.9304C56.3765 76.9747 56.2115 77 56.0274 77C55.8084 77 55.6147 76.9747 55.4433 76.9272C55.2751 76.8766 55.1069 76.8101 54.945 76.7215L55.3005 75.9396C55.3989 75.9902 55.4973 76.0346 55.5989 76.063C55.7004 76.0947 55.8052 76.1105 55.9131 76.1105C56.0623 76.1105 56.1861 76.0725 56.2845 75.9997C56.3829 75.9238 56.4749 75.7877 56.5606 75.5882L54.6593 71.049H55.7734L57.0685 74.4265L58.2525 71.049H59.3412L57.5256 75.7275L57.5288 75.7243Z" fill="white"/>
<path d="M79.1322 75.6262V74.8665C78.9672 75.1007 78.7577 75.3033 78.5069 75.4711C78.2561 75.6389 77.9482 75.7212 77.58 75.7212C77.3102 75.7212 77.05 75.6705 76.796 75.5661C76.5421 75.4616 76.3199 75.3097 76.1231 75.1071C75.9295 74.9013 75.7708 74.6544 75.6501 74.3632C75.5295 74.0688 75.4692 73.7333 75.4692 73.3534C75.4692 72.9736 75.5295 72.638 75.647 72.3436C75.7644 72.0492 75.9199 71.8023 76.1167 71.5997C76.3104 71.394 76.5357 71.242 76.7928 71.1408C77.0499 71.0363 77.3102 70.9856 77.58 70.9856C77.9546 70.9856 78.2625 71.0648 78.5101 71.2262C78.7577 71.3877 78.964 71.5744 79.1322 71.7865V69.3396H80.186V75.6294H79.1322V75.6262ZM79.0402 72.7488C78.9703 72.5715 78.8719 72.4164 78.7545 72.2866C78.6339 72.1569 78.4942 72.0587 78.3323 71.9891C78.1704 71.9195 78.0054 71.8878 77.834 71.8878C77.6626 71.8878 77.488 71.9195 77.3293 71.9859C77.1706 72.0524 77.0309 72.1505 76.9103 72.274C76.7897 72.4006 76.6944 72.5525 76.6246 72.733C76.5548 72.9134 76.523 73.1192 76.523 73.3502C76.523 73.5813 76.558 73.7776 76.6246 73.958C76.6944 74.1384 76.7897 74.2936 76.9103 74.417C77.0309 74.5436 77.1706 74.6418 77.3293 74.7114C77.4848 74.781 77.6562 74.8159 77.834 74.8159C78.0117 74.8159 78.1736 74.781 78.3323 74.7114C78.4942 74.6418 78.6339 74.5436 78.7545 74.4138C78.8751 74.2841 78.9703 74.1321 79.0402 73.9549C79.1132 73.7744 79.1481 73.575 79.1481 73.3502C79.1481 73.1255 79.1132 72.9261 79.0402 72.7456" fill="white"/>
<path d="M83.4364 69.3903H84.5664V70.381H83.4364V69.3903ZM83.4808 71.0806H84.5347V75.6294H83.4808V71.0806Z" fill="white"/>
<path d="M91.0512 74.9108C90.9655 75.0881 90.8449 75.2369 90.6925 75.354C90.5402 75.4711 90.3593 75.5597 90.1529 75.6199C89.9466 75.68 89.7244 75.7117 89.4864 75.7117C89.1594 75.7117 88.8261 75.6547 88.4897 75.5376C88.1532 75.4236 87.839 75.2527 87.5533 75.0311L88.0199 74.322C88.2675 74.5056 88.5182 74.6449 88.7753 74.7399C89.0325 74.8348 89.2769 74.8823 89.5149 74.8823C89.7403 74.8823 89.9117 74.838 90.0355 74.7494C90.1593 74.6607 90.2228 74.5405 90.2228 74.3917V74.3759C90.2228 74.2904 90.1942 74.2144 90.1402 74.1511C90.0831 74.0878 90.0101 74.034 89.9149 73.9833C89.8196 73.9327 89.7117 73.8915 89.5879 73.8535C89.4641 73.8156 89.3372 73.7776 89.2039 73.7396C89.0356 73.6858 88.8674 73.6288 88.6992 73.5687C88.5278 73.5053 88.3786 73.423 88.2421 73.3218C88.1056 73.2205 87.9945 73.097 87.9088 72.9514C87.8231 72.8058 87.7787 72.6222 87.7787 72.4038V72.3879C87.7787 72.1759 87.8199 71.9828 87.9024 71.8118C87.9881 71.6409 88.1024 71.4921 88.2484 71.3718C88.3944 71.2515 88.5658 71.1597 88.7658 71.0964C88.9658 71.0331 89.1753 71.0015 89.4007 71.0015C89.6895 71.0015 89.9815 71.0489 90.2736 71.1407C90.5688 71.2325 90.8354 71.3592 91.0766 71.5206L90.6608 72.2613C90.4418 72.1284 90.2196 72.0239 89.9974 71.9448C89.772 71.8688 89.5657 71.8277 89.3753 71.8277C89.1721 71.8277 89.0166 71.872 88.9055 71.9574C88.7912 72.0429 88.7373 72.1537 88.7373 72.2835V72.2993C88.7373 72.3816 88.7658 72.4513 88.823 72.5114C88.8801 72.5715 88.9563 72.6253 89.0515 72.676C89.1467 72.7266 89.2546 72.771 89.3784 72.8153C89.5022 72.8596 89.6292 72.9007 89.7625 72.9387C89.9276 72.9925 90.0958 73.0495 90.264 73.1192C90.4323 73.1888 90.5814 73.2743 90.7179 73.3724C90.8544 73.4737 90.9655 73.5971 91.0512 73.7396C91.1369 73.882 91.1814 74.0561 91.1814 74.2651V74.2809C91.1814 74.5215 91.1369 74.7304 91.0512 74.9108Z" fill="white"/>
<path d="M95.0856 74.2017C95.0856 74.4043 95.1332 74.5499 95.2348 74.6385C95.3332 74.7272 95.4697 74.7715 95.6475 74.7715C95.8728 74.7715 96.0887 74.7208 96.295 74.6164V75.471C96.1617 75.547 96.022 75.604 95.8728 75.642C95.7236 75.6831 95.5491 75.7021 95.3523 75.7021C95.1555 75.7021 94.9872 75.68 94.8253 75.6325C94.6635 75.585 94.5238 75.5122 94.4032 75.4077C94.2857 75.3033 94.1937 75.1672 94.1302 74.9962C94.0667 74.8285 94.035 74.6164 94.035 74.36V71.9605H93.4573V71.0742H94.035V69.8239H95.0888V71.0742H96.3172V71.9605H95.0888V74.1985L95.0856 74.2017Z" fill="white"/>
<path d="M100.326 75.6262H99.2724V71.0774H100.326V72.103C100.469 71.758 100.675 71.4826 100.939 71.2737C101.202 71.0679 101.539 70.9729 101.942 70.9888V72.0935H101.882C101.65 72.0935 101.44 72.1315 101.253 72.2043C101.063 72.2803 100.898 72.3911 100.761 72.5398C100.621 72.6886 100.517 72.8785 100.444 73.1033C100.367 73.3312 100.333 73.5939 100.333 73.8915V75.623L100.326 75.6262Z" fill="white"/>
<path d="M104.903 69.3903H106.037V70.381H104.903V69.3903ZM104.948 71.0806H106.002V75.6294H104.948V71.0806Z" fill="white"/>
<path d="M111.855 75.4932C111.566 75.6515 111.201 75.7306 110.76 75.7306C110.42 75.7306 110.106 75.6673 109.817 75.5439C109.531 75.4204 109.281 75.2495 109.068 75.0342C108.855 74.819 108.69 74.5689 108.573 74.284C108.455 73.9991 108.395 73.6952 108.395 73.366C108.395 73.0368 108.455 72.7298 108.573 72.4449C108.693 72.1568 108.858 71.9036 109.068 71.6852C109.281 71.4667 109.531 71.2958 109.823 71.1692C110.115 71.0426 110.43 70.9792 110.769 70.9792C111.201 70.9792 111.56 71.0521 111.845 71.1945C112.131 71.3401 112.379 71.53 112.594 71.7643L111.947 72.4607C111.785 72.2929 111.614 72.1568 111.433 72.0523C111.252 71.9447 111.03 71.8909 110.763 71.8909C110.572 71.8909 110.395 71.9289 110.236 72.008C110.074 72.084 109.938 72.1916 109.82 72.3214C109.706 72.4544 109.614 72.6063 109.547 72.7836C109.481 72.9577 109.449 73.1476 109.449 73.347C109.449 73.5464 109.481 73.7459 109.547 73.9231C109.614 74.1004 109.706 74.2555 109.826 74.3885C109.947 74.5182 110.09 74.6259 110.258 74.7018C110.423 74.7778 110.611 74.819 110.81 74.819C111.058 74.819 111.277 74.7652 111.464 74.6575C111.652 74.5499 111.829 74.4138 111.994 74.2492L112.623 74.8696C112.398 75.1228 112.14 75.3286 111.855 75.4837" fill="white"/>
<path d="M116.61 74.2017C116.61 74.4043 116.66 74.5499 116.759 74.6385C116.857 74.7272 116.994 74.7715 117.172 74.7715C117.397 74.7715 117.613 74.7208 117.819 74.6164V75.471C117.686 75.547 117.546 75.604 117.397 75.642C117.248 75.6831 117.073 75.7021 116.88 75.7021C116.686 75.7021 116.511 75.68 116.349 75.6325C116.188 75.585 116.048 75.5122 115.927 75.4077C115.807 75.3033 115.718 75.1672 115.654 74.9962C115.591 74.8285 115.559 74.6164 115.559 74.36V71.9605H114.981V71.0742H115.559V69.8239H116.613V71.0742H117.841V71.9605H116.613V74.1985L116.61 74.2017Z" fill="white"/>
</g>
<defs>
<clipPath id="clip0_37_537">
<rect width="118" height="77" fill="white"/>
</clipPath>
</defs>
</svg>
