<svg width="53" height="73" viewBox="0 0 53 73" fill="none" xmlns="http://www.w3.org/2000/svg">
<g clip-path="url(#clip0_39_22)">
<path d="M52.935 24.3999C52.0633 11.131 39.9711 0 26.482 0H26.287C19.2916 0.0575894 12.7167 2.80748 7.7697 7.75118C2.75775 12.7489 0 19.3788 0 26.4191C0 48.9492 23.9877 71.4685 25.0074 72.4151C25.4279 72.8056 25.9658 73 26.5018 73C27.0378 73 27.5739 72.8056 27.9926 72.4151C29.0394 71.4397 53 48.9456 53 26.4281C53 25.7497 52.9801 25.0748 52.935 24.4017V24.3999ZM26.5018 38.297C19.9305 38.297 14.5847 32.9663 14.5847 26.4138C14.5847 19.8612 19.9305 14.5305 26.5018 14.5305C33.0731 14.5305 38.4153 19.8612 38.4153 26.4138C38.4153 32.9663 33.0695 38.297 26.5018 38.297Z" fill="#00648A"/>
</g>
<defs>
<clipPath id="clip0_39_22">
<rect width="53" height="73" fill="white"/>
</clipPath>
</defs>
</svg>
