<svg width="150" height="98" viewBox="0 0 150 98" fill="none" xmlns="http://www.w3.org/2000/svg">
<g clip-path="url(#clip0_2_71)">
<path d="M96.573 29.444H99.5669V43.8149H108.597V46.5238H96.573V29.444Z" fill="#005F7F"/>
<path d="M117.579 29.464H114.585V46.5438H117.579V29.464Z" fill="#005F7F"/>
<path d="M37.8077 9.56299C40.612 9.56299 42.4196 7.40394 42.4196 4.98403V4.96396C42.4196 2.54004 40.612 0.380981 37.8077 0.380981C35.0034 0.380981 33.1876 2.54004 33.1876 4.96396V4.98403C33.1876 7.40795 34.9993 9.56299 37.8077 9.56299Z" fill="#005F7F"/>
<path d="M70.9953 9.56299C73.7996 9.56299 75.6073 7.40394 75.6073 4.98403V4.96396C75.6073 2.54004 73.7996 0.380981 70.9953 0.380981C68.191 0.380981 66.3753 2.54004 66.3753 4.96396V4.98403C66.3753 7.40795 68.187 9.56299 70.9953 9.56299Z" fill="#005F7F"/>
<path d="M4.62408 9.56299C7.42838 9.56299 9.23605 7.40394 9.23605 4.98403V4.96396C9.23605 2.54004 7.42434 0.380981 4.62408 0.380981C1.82381 0.380981 0 2.54004 0 4.96396V4.98403C0 7.40394 1.81574 9.56299 4.62408 9.56299Z" fill="#005F7F"/>
<path d="M37.8077 42.5669C40.612 42.5669 42.4196 40.4078 42.4196 37.9879V37.9679C42.4196 35.5439 40.612 33.3849 37.8077 33.3849C35.0034 33.3849 33.1876 35.5439 33.1876 37.9679V37.9879C33.1876 40.4119 34.9993 42.5669 37.8077 42.5669Z" fill="#005F7F"/>
<path d="M4.62408 42.5669C7.42838 42.5669 9.23605 40.4078 9.23605 37.9879V37.9679C9.23605 35.5439 7.42838 33.3849 4.62408 33.3849C1.81977 33.3849 0 35.5439 0 37.9679V37.9879C0 40.4119 1.8117 42.5669 4.62004 42.5669" fill="#005F7F"/>
<path d="M70.9953 42.5669C73.7996 42.5669 75.6073 40.4078 75.6073 37.9879V37.9679C75.6073 35.5439 73.7996 33.3849 70.9953 33.3849C68.191 33.3849 66.3753 35.5439 66.3753 37.9679V37.9879C66.3753 40.4119 68.187 42.5669 70.9953 42.5669Z" fill="#005F7F"/>
<path d="M37.8077 75.5747C40.612 75.5747 42.4196 73.4157 42.4196 70.9957V70.9757C42.4196 68.5518 40.612 66.3927 37.8077 66.3927C35.0034 66.3927 33.1876 68.5518 33.1876 70.9757V70.9957C33.1876 73.4197 34.9993 75.5747 37.8077 75.5747Z" fill="#005F7F"/>
<path d="M4.62408 75.5747C7.42838 75.5747 9.23605 73.4157 9.23605 70.9957V70.9757C9.23605 68.5518 7.42838 66.3927 4.62408 66.3927C1.81977 66.3927 0 68.5518 0 70.9757V70.9957C0 73.4197 1.8117 75.5747 4.62004 75.5747" fill="#005F7F"/>
<path d="M70.9953 75.5747C73.7996 75.5747 75.6073 73.4157 75.6073 70.9957V70.9757C75.6073 68.5518 73.7996 66.3927 70.9953 66.3927C68.191 66.3927 66.3753 68.5518 66.3753 70.9757V70.9957C66.3753 73.4197 68.187 75.5747 70.9953 75.5747Z" fill="#005F7F"/>
<path d="M134.409 17.7377H131.217L129.478 13.6122H121.356L119.588 17.7377H116.498L124.051 0.537476H126.847L134.405 17.7417L134.409 17.7377ZM125.403 4.12119L122.457 10.9515H128.369L125.399 4.12119H125.403Z" fill="#005F7F"/>
<path d="M110.594 16.4134C110.082 16.7384 109.525 17.0234 108.928 17.2682C108.331 17.513 107.689 17.7056 106.999 17.8421C106.313 17.9785 105.591 18.0507 104.841 18.0507C103.501 18.0507 102.282 17.826 101.185 17.3805C100.087 16.9311 99.1513 16.3171 98.3766 15.5265C97.5978 14.7399 96.9966 13.8049 96.573 12.7334C96.1453 11.6578 95.9354 10.498 95.9354 9.24596C95.9354 7.99386 96.1493 6.9023 96.5851 5.83079C97.0168 4.75528 97.6261 3.81621 98.4129 3.01359C99.1957 2.20695 100.132 1.56886 101.221 1.09933C102.311 0.617755 103.501 0.380981 104.792 0.380981C105.543 0.380981 106.229 0.433152 106.842 0.537493C107.455 0.645847 108.024 0.794332 108.549 0.990975C109.073 1.18762 109.566 1.4284 110.03 1.70932C110.498 1.99425 110.95 2.32333 111.389 2.69655L109.477 4.96797C109.15 4.69107 108.815 4.43824 108.472 4.20949C108.129 3.98075 107.77 3.79213 107.391 3.63562C107.015 3.47911 106.6 3.35871 106.152 3.27043C105.7 3.18214 105.208 3.13398 104.667 3.13398C103.88 3.13398 103.15 3.2945 102.472 3.61154C101.794 3.92858 101.205 4.36601 100.705 4.91982C100.204 5.47363 99.813 6.11974 99.5266 6.85013C99.2401 7.58453 99.0989 8.36708 99.0989 9.1978C99.0989 10.0767 99.236 10.8953 99.5145 11.6418C99.7929 12.3922 100.188 13.0384 100.705 13.5841C101.221 14.1299 101.835 14.5593 102.545 14.8683C103.259 15.1773 104.054 15.3339 104.937 15.3339C105.757 15.3339 106.519 15.2135 107.229 14.9767C107.944 14.7399 108.557 14.4269 109.081 14.0336V10.8191H104.691V8.20656H112.003V15.382C111.575 15.7392 111.107 16.0803 110.59 16.4054" fill="#005F7F"/>
<path d="M96.573 58.194H99.5669V72.569H108.597V75.2778H96.573V58.194Z" fill="#005F7F"/>
<path d="M149.334 70.129C148.894 71.2045 148.273 72.1436 147.47 72.9502C146.667 73.7568 145.719 74.3949 144.621 74.8645C143.524 75.338 142.313 75.5708 140.99 75.5708C139.666 75.5708 138.452 75.338 137.358 74.8765C136.261 74.411 135.321 73.7849 134.538 72.9863C133.751 72.1877 133.138 71.2527 132.698 70.1811C132.258 69.1056 132.036 67.9699 132.036 66.766C132.036 65.5621 132.258 64.4223 132.698 63.3468C133.142 62.2753 133.763 61.3322 134.562 60.5296C135.365 59.723 136.313 59.0849 137.407 58.6154C138.504 58.1418 139.711 57.905 141.038 57.905C142.366 57.905 143.572 58.1378 144.67 58.5993C145.767 59.0648 146.707 59.6949 147.49 60.4895C148.277 61.2881 148.89 62.2231 149.33 63.2946C149.774 64.3661 149.996 65.5059 149.996 66.7098C149.996 67.9137 149.774 69.0535 149.33 70.125M146.401 64.4023C146.114 63.6639 145.715 63.0177 145.198 62.4639C144.682 61.9141 144.065 61.4727 143.346 61.1476C142.628 60.8226 141.841 60.658 140.994 60.658C140.147 60.658 139.364 60.8145 138.65 61.1316C137.939 61.4486 137.33 61.878 136.822 62.4238C136.317 62.9696 135.918 63.6117 135.631 64.3501C135.345 65.0885 135.204 65.8751 135.204 66.7058C135.204 67.5365 135.345 68.3191 135.631 69.0615C135.918 69.8039 136.317 70.45 136.834 70.9998C137.35 71.5536 137.968 71.9951 138.686 72.3161C139.404 72.6412 140.191 72.8057 141.042 72.8057C141.894 72.8057 142.672 72.6452 143.383 72.3282C144.097 72.0111 144.706 71.5817 145.21 71.0359C145.719 70.4902 146.114 69.8481 146.401 69.1096C146.687 68.3672 146.829 67.5847 146.829 66.754C146.829 65.9232 146.683 65.1407 146.401 64.3983" fill="#005F7F"/>
<path d="M127.416 60.9028H117.7V65.2972H126.311V68.002H117.7V72.569H127.537V75.2778H114.706V58.194H127.416V60.9028Z" fill="#005F7F"/>
<path d="M4.55548 90.4553H5.95158L3.57902 96.2623H2.38467L0 90.4553H1.42838L2.98588 94.6892L4.55548 90.4553Z" fill="#005F7F"/>
<path d="M10.4102 88.3124H11.8467V89.5685H10.4102V88.3124ZM10.4667 90.4554H11.8063V96.2222H10.4667V90.4554Z" fill="#005F7F"/>
<path d="M20.9052 95.3152C20.7962 95.5399 20.6429 95.7286 20.4492 95.877C20.2555 96.0255 20.0256 96.1379 19.7633 96.2141C19.501 96.2904 19.2186 96.3305 18.92 96.3305C18.5003 96.3305 18.0807 96.2583 17.653 96.1098C17.2253 95.9653 16.8258 95.7486 16.4627 95.4677L17.0558 94.5688C17.3705 94.8015 17.6893 94.9781 18.0161 95.0985C18.343 95.2189 18.6537 95.2791 18.9563 95.2791C19.2589 95.2791 19.4647 95.2229 19.6221 95.1105C19.7794 94.9982 19.8601 94.8457 19.8601 94.6571V94.637C19.8601 94.5286 19.8238 94.4323 19.7552 94.3521C19.6866 94.2718 19.5898 94.2036 19.4687 94.1394C19.3477 94.0752 19.2105 94.023 19.0531 93.9748C18.8958 93.9267 18.7344 93.8785 18.5649 93.8304C18.351 93.7621 18.1372 93.6899 17.9233 93.6136C17.7054 93.5334 17.5118 93.429 17.3423 93.3006C17.1688 93.1722 17.0276 93.0157 16.9186 92.8311C16.8097 92.6465 16.7532 92.4137 16.7532 92.1368V92.1167C16.7532 91.8479 16.8056 91.6031 16.9106 91.3864C17.0155 91.1697 17.1648 90.981 17.3504 90.8285C17.536 90.676 17.7579 90.5597 18.0081 90.4794C18.2623 90.3991 18.5286 90.359 18.8151 90.359C19.1822 90.359 19.5535 90.4192 19.9247 90.5356C20.2999 90.652 20.6389 90.8125 20.9455 91.0172L20.4169 91.9562C20.1385 91.7877 19.8561 91.6552 19.5736 91.5549C19.2912 91.4546 19.0249 91.4064 18.7828 91.4064C18.5245 91.4064 18.3268 91.4626 18.1856 91.571C18.0444 91.6793 17.9718 91.8198 17.9718 91.9843V92.0044C17.9718 92.1087 18.0081 92.197 18.0807 92.2733C18.1533 92.3495 18.2502 92.4177 18.3712 92.4819C18.4923 92.5462 18.6295 92.6023 18.7868 92.6585C18.9442 92.7147 19.1056 92.7669 19.275 92.815C19.4889 92.8833 19.6987 92.9555 19.9126 93.0438C20.1264 93.1321 20.3161 93.2404 20.4896 93.3648C20.6631 93.4932 20.8043 93.6498 20.9132 93.8304C21.0222 94.0109 21.0787 94.2317 21.0787 94.4965V94.5206C21.0787 94.8256 21.0222 95.0905 20.9132 95.3152" fill="#005F7F"/>
<path d="M25.5615 88.3124H26.998V89.5685H25.5615V88.3124ZM25.618 90.4554H26.9576V96.2222H25.618V90.4554Z" fill="#005F7F"/>
<path d="M37.4284 94.5046C37.271 94.8697 37.0531 95.1868 36.7787 95.4597C36.5044 95.7326 36.1775 95.9493 35.7942 96.1098C35.4149 96.2703 34.9993 96.3506 34.5555 96.3506C34.1116 96.3506 33.7081 96.2743 33.3329 96.1138C32.9536 95.9573 32.6308 95.7406 32.3564 95.4677C32.082 95.1948 31.8682 94.8778 31.7149 94.5166C31.5615 94.1554 31.4849 93.7702 31.4849 93.3528C31.4849 92.9354 31.5656 92.5462 31.7229 92.177C31.8803 91.8118 32.0941 91.4907 32.3685 91.2178C32.6429 90.9449 32.9697 90.7282 33.345 90.5677C33.7202 90.4072 34.1318 90.3269 34.5797 90.3269C35.0276 90.3269 35.4391 90.4032 35.8144 90.5637C36.1896 90.7202 36.5165 90.9329 36.7909 91.2058C37.0652 91.4787 37.2791 91.7957 37.4324 92.1609C37.5857 92.5261 37.6624 92.9154 37.6624 93.3287C37.6624 93.7421 37.5857 94.1354 37.4284 94.4965M36.1937 92.6264C36.1049 92.4017 35.9839 92.201 35.8305 92.0325C35.6732 91.8639 35.4876 91.7275 35.2737 91.6312C35.0599 91.5308 34.8218 91.4827 34.5595 91.4827C34.2972 91.4827 34.0592 91.5308 33.8453 91.6312C33.6315 91.7275 33.4459 91.8639 33.2925 92.0285C33.1392 92.197 33.0222 92.3896 32.9415 92.6144C32.8608 92.8351 32.8204 93.0759 32.8204 93.3287C32.8204 93.5815 32.8648 93.8263 32.9496 94.0551C33.0383 94.2838 33.1594 94.4805 33.3167 94.649C33.4741 94.8176 33.6597 94.95 33.8736 95.0463C34.0874 95.1426 34.3215 95.1948 34.5757 95.1948C34.846 95.1948 35.0881 95.1467 35.3019 95.0463C35.5158 94.946 35.7014 94.8136 35.8547 94.649C36.0081 94.4805 36.1251 94.2878 36.2058 94.0631C36.2865 93.8424 36.3268 93.6016 36.3268 93.3488C36.3268 93.096 36.2824 92.8552 36.1977 92.6264" fill="#005F7F"/>
<path d="M43.4728 96.2182H42.1332V90.4513H43.4728V91.3543C43.5696 91.2138 43.6705 91.0854 43.7835 90.965C43.8964 90.8446 44.0296 90.7363 44.1789 90.64C44.3282 90.5436 44.4936 90.4674 44.6712 90.4152C44.8487 90.359 45.0545 90.335 45.2804 90.335C45.9381 90.335 46.4465 90.5356 46.8016 90.9329C47.1607 91.3342 47.3383 91.872 47.3383 92.5502V96.2182H45.9987V92.9515C45.9987 92.498 45.8897 92.1529 45.6759 91.9081C45.462 91.6633 45.1594 91.5429 44.768 91.5429C44.3766 91.5429 44.074 91.6673 43.8319 91.9201C43.5938 92.169 43.4728 92.5221 43.4728 92.9716V96.2182Z" fill="#005F7F"/>
<path d="M55.8117 96.2222V95.5119C55.614 95.7446 55.3598 95.9413 55.0531 96.1018C54.7465 96.2623 54.3712 96.3426 53.9314 96.3426C53.653 96.3426 53.3907 96.3025 53.1406 96.2262C52.8904 96.15 52.6725 96.0376 52.4869 95.8891C52.3013 95.7406 52.152 95.556 52.035 95.3313C51.922 95.1106 51.8655 94.8537 51.8655 94.5608V94.5407C51.8655 94.2277 51.926 93.9548 52.043 93.722C52.1601 93.4893 52.3215 93.2966 52.5313 93.1441C52.7411 92.9916 52.9872 92.8753 53.2777 92.799C53.5642 92.7228 53.879 92.6866 54.2139 92.6866C54.5488 92.6866 54.8635 92.7067 55.1096 92.7509C55.3558 92.795 55.5898 92.8512 55.8198 92.9274V92.787C55.8198 92.3857 55.6947 92.0807 55.4526 91.868C55.2065 91.6553 54.8554 91.5509 54.3914 91.5509C54.0605 91.5509 53.77 91.583 53.5118 91.6473C53.2535 91.7115 52.9953 91.7998 52.733 91.9081L52.3699 90.8486C52.6927 90.7002 53.0195 90.5838 53.3584 90.4995C53.6933 90.4112 54.1009 90.3671 54.577 90.3671C55.4405 90.3671 56.082 90.5798 56.4977 91.0092C56.9133 91.4346 57.1231 92.0325 57.1231 92.807V96.2262H55.8036L55.8117 96.2222ZM55.844 93.7742C55.6745 93.71 55.4768 93.6538 55.2468 93.6097C55.0168 93.5655 54.7747 93.5414 54.5165 93.5414C54.1009 93.5414 53.774 93.6217 53.54 93.7822C53.306 93.9428 53.189 94.1715 53.189 94.4685V94.4925C53.189 94.7695 53.2979 94.9781 53.5118 95.1266C53.7256 95.2711 53.9919 95.3433 54.3067 95.3433C54.5245 95.3433 54.7303 95.3152 54.9159 95.255C55.1016 95.1989 55.267 95.1146 55.4042 95.0102C55.5414 94.9059 55.6503 94.7775 55.727 94.629C55.8036 94.4805 55.844 94.316 55.844 94.1314V93.7702V93.7742Z" fill="#005F7F"/>
<path d="M62.9617 96.2182H61.6221V90.4513H62.9617V91.7516C63.1432 91.3141 63.4055 90.965 63.7404 90.7001C64.0753 90.4393 64.503 90.3189 65.0155 90.3389V91.7395H64.9388C64.6442 91.7395 64.3779 91.7877 64.1358 91.88C63.8937 91.9763 63.6839 92.1167 63.5104 92.3054C63.3329 92.494 63.1997 92.7348 63.1029 93.0197C63.006 93.3086 62.9617 93.6417 62.9617 94.019V96.2141V96.2182Z" fill="#005F7F"/>
<path d="M73.1298 96.3827C73.0128 96.6797 72.8917 96.9325 72.7666 97.1372C72.6416 97.3418 72.5044 97.5064 72.351 97.6348C72.1977 97.7632 72.0282 97.8555 71.8467 97.9117C71.6651 97.9679 71.4553 98 71.2212 98C70.9428 98 70.6967 97.9679 70.4788 97.9077C70.265 97.8435 70.0511 97.7592 69.8453 97.6468L70.2972 96.6556C70.4223 96.7198 70.5474 96.776 70.6765 96.8121C70.8057 96.8522 70.9388 96.8723 71.076 96.8723C71.2656 96.8723 71.423 96.8241 71.5481 96.7318C71.6732 96.6355 71.7902 96.463 71.8991 96.2101L69.4822 90.4553H70.8985L72.5447 94.7373L74.0498 90.4553H75.4338L73.1258 96.3867L73.1298 96.3827Z" fill="#005F7F"/>
<path d="M100.592 96.2584V95.2952C100.382 95.5922 100.116 95.849 99.7969 96.0617C99.4781 96.2744 99.0868 96.3788 98.6187 96.3788C98.2757 96.3788 97.9449 96.3146 97.6221 96.1821C97.2993 96.0497 97.0168 95.8571 96.7666 95.6002C96.5205 95.3394 96.3188 95.0264 96.1654 94.6571C96.0121 94.2839 95.9354 93.8585 95.9354 93.377C95.9354 92.8954 96.0121 92.47 96.1614 92.0968C96.3107 91.7236 96.5084 91.4105 96.7586 91.1537C97.0047 90.8928 97.2912 90.7002 97.618 90.5718C97.9449 90.4394 98.2757 90.3751 98.6187 90.3751C99.0948 90.3751 99.4862 90.4755 99.8009 90.6801C100.116 90.8848 100.378 91.1216 100.592 91.3905V88.2883H101.931V96.2624H100.592V96.2584ZM100.475 92.6105C100.386 92.3857 100.261 92.1891 100.112 92.0245C99.9583 91.86 99.7808 91.7356 99.575 91.6473C99.3692 91.559 99.1594 91.5189 98.9415 91.5189C98.7236 91.5189 98.5017 91.559 98.2999 91.6433C98.0982 91.7276 97.9206 91.852 97.7673 92.0085C97.614 92.169 97.4929 92.3616 97.4042 92.5904C97.3154 92.8191 97.2751 93.08 97.2751 93.3729C97.2751 93.6659 97.3194 93.9147 97.4042 94.1435C97.4929 94.3722 97.614 94.5689 97.7673 94.7254C97.9206 94.8859 98.0982 95.0103 98.2999 95.0986C98.4976 95.1869 98.7155 95.231 98.9415 95.231C99.1675 95.231 99.3732 95.1869 99.575 95.0986C99.7808 95.0103 99.9583 94.8859 100.112 94.7214C100.265 94.5568 100.386 94.3642 100.475 94.1395C100.568 93.9107 100.612 93.6579 100.612 93.3729C100.612 93.088 100.568 92.8352 100.475 92.6064" fill="#005F7F"/>
<path d="M106.063 88.3525H107.5V89.6086H106.063V88.3525ZM106.12 90.4955H107.459V96.2624H106.12V90.4955Z" fill="#005F7F"/>
<path d="M115.743 95.3513C115.634 95.5761 115.481 95.7647 115.287 95.9132C115.093 96.0617 114.863 96.174 114.601 96.2503C114.339 96.3265 114.056 96.3667 113.754 96.3667C113.338 96.3667 112.915 96.2944 112.487 96.1459C112.059 96.0015 111.66 95.7848 111.297 95.5038L111.89 94.6049C112.204 94.8377 112.523 95.0142 112.85 95.1346C113.177 95.255 113.488 95.3152 113.79 95.3152C114.077 95.3152 114.295 95.259 114.452 95.1467C114.609 95.0343 114.69 94.8818 114.69 94.6932V94.6731C114.69 94.5648 114.654 94.4685 114.585 94.3882C114.512 94.3079 114.42 94.2397 114.299 94.1755C114.178 94.1113 114.04 94.0591 113.883 94.011C113.726 93.9628 113.564 93.9146 113.395 93.8665C113.181 93.7983 112.967 93.726 112.753 93.6498C112.535 93.5695 112.346 93.4652 112.172 93.3368C111.999 93.2083 111.857 93.0518 111.748 92.8672C111.64 92.6826 111.583 92.4499 111.583 92.1729V92.1529C111.583 91.884 111.636 91.6392 111.74 91.4225C111.849 91.2058 111.995 91.0172 112.18 90.8647C112.366 90.7122 112.584 90.5958 112.838 90.5155C113.092 90.4353 113.358 90.3951 113.645 90.3951C114.012 90.3951 114.383 90.4553 114.755 90.5717C115.13 90.6881 115.469 90.8486 115.775 91.0533L115.247 91.9924C114.968 91.8238 114.686 91.6914 114.403 91.591C114.117 91.4947 113.855 91.4426 113.613 91.4426C113.354 91.4426 113.157 91.4988 113.015 91.6071C112.87 91.7155 112.802 91.8559 112.802 92.0205V92.0405C112.802 92.1449 112.838 92.2332 112.911 92.3094C112.983 92.3856 113.08 92.4539 113.201 92.5181C113.322 92.5823 113.459 92.6385 113.617 92.6947C113.774 92.7508 113.935 92.803 114.105 92.8512C114.315 92.9194 114.529 92.9916 114.742 93.0799C114.956 93.1682 115.146 93.2766 115.319 93.401C115.493 93.5294 115.634 93.6859 115.743 93.8665C115.852 94.0471 115.909 94.2678 115.909 94.5327V94.5527C115.909 94.8577 115.852 95.1226 115.743 95.3513Z" fill="#005F7F"/>
<path d="M120.872 94.4525C120.872 94.7093 120.932 94.8939 121.061 95.0063C121.186 95.1187 121.36 95.1748 121.586 95.1748C121.872 95.1748 122.147 95.1106 122.409 94.9782V96.0617C122.239 96.1581 122.062 96.2303 121.872 96.2785C121.683 96.3306 121.461 96.3547 121.21 96.3547C120.96 96.3547 120.746 96.3266 120.541 96.2664C120.335 96.2062 120.157 96.1139 120.004 95.9815C119.855 95.849 119.738 95.6765 119.657 95.4598C119.576 95.2471 119.536 94.9782 119.536 94.6531V91.6112H118.802V90.4875H119.536V88.9023H120.876V90.4875H122.437V91.6112H120.876V94.4485L120.872 94.4525Z" fill="#005F7F"/>
<path d="M127.533 96.2583H126.194V90.4915H127.533V91.7917C127.715 91.3543 127.977 91.0052 128.312 90.7403C128.647 90.4794 129.075 90.359 129.587 90.3791V91.7797H129.51C129.216 91.7797 128.95 91.8278 128.711 91.9201C128.469 92.0165 128.26 92.1569 128.086 92.3455C127.909 92.5341 127.775 92.7749 127.683 93.0599C127.586 93.3488 127.541 93.6819 127.541 94.0591V96.2543L127.533 96.2583Z" fill="#005F7F"/>
<path d="M133.352 88.3525H134.792V89.6086H133.352V88.3525ZM133.408 90.4955H134.748V96.2624H133.408V90.4955Z" fill="#005F7F"/>
<path d="M142.188 96.0898C141.821 96.2904 141.357 96.3908 140.796 96.3908C140.364 96.3908 139.965 96.3105 139.598 96.154C139.235 95.9975 138.916 95.7808 138.646 95.5079C138.375 95.235 138.165 94.9179 138.016 94.5568C137.867 94.1956 137.79 93.8103 137.79 93.393C137.79 92.9756 137.867 92.5863 138.016 92.2251C138.169 91.8599 138.379 91.5389 138.646 91.262C138.916 90.9851 139.235 90.7684 139.606 90.6079C139.977 90.4473 140.377 90.3671 140.808 90.3671C141.357 90.3671 141.813 90.4594 142.176 90.64C142.539 90.8246 142.854 91.0654 143.128 91.3623L142.305 92.2452C142.1 92.0325 141.882 91.8599 141.652 91.7275C141.422 91.5911 141.139 91.5228 140.8 91.5228C140.558 91.5228 140.332 91.571 140.13 91.6713C139.925 91.7676 139.751 91.9041 139.602 92.0686C139.457 92.2372 139.34 92.4298 139.255 92.6545C139.17 92.8753 139.13 93.1161 139.13 93.3689C139.13 93.6217 139.17 93.8745 139.255 94.0993C139.34 94.324 139.457 94.5206 139.61 94.6892C139.763 94.8537 139.945 94.9902 140.159 95.0865C140.369 95.1828 140.607 95.235 140.861 95.235C141.176 95.235 141.454 95.1668 141.692 95.0303C141.93 94.8939 142.156 94.7213 142.366 94.5126L143.165 95.2992C142.878 95.6202 142.551 95.8811 142.188 96.0777" fill="#005F7F"/>
<path d="M148.233 94.4525C148.233 94.7093 148.297 94.8939 148.422 95.0063C148.547 95.1187 148.721 95.1748 148.947 95.1748C149.233 95.1748 149.508 95.1106 149.77 94.9782V96.0617C149.601 96.1581 149.423 96.2303 149.233 96.2785C149.044 96.3306 148.822 96.3547 148.576 96.3547C148.33 96.3547 148.108 96.3266 147.902 96.2664C147.696 96.2062 147.518 96.1139 147.365 95.9815C147.212 95.849 147.099 95.6765 147.018 95.4598C146.937 95.2471 146.897 94.9782 146.897 94.6531V91.6112H146.163V90.4875H146.897V88.9023H148.237V90.4875H149.798V91.6112H148.237V94.4485L148.233 94.4525Z" fill="#005F7F"/>
</g>
<defs>
<clipPath id="clip0_2_71">
<rect width="150" height="97.619" fill="white" transform="translate(0 0.380981)"/>
</clipPath>
</defs>
</svg>
