<svg width="28" height="28" viewBox="0 0 28 28" fill="none" xmlns="http://www.w3.org/2000/svg">
<g clip-path="url(#clip0_37_574)">
<path d="M14.251 10.9869C12.7286 10.9869 11.4901 12.2254 11.4901 13.7479C11.4901 15.2704 12.7286 16.5089 14.251 16.5089C15.7735 16.5089 17.012 15.2704 17.012 13.7479C17.012 12.2254 15.7735 10.9869 14.251 10.9869Z" fill="white"/>
<path d="M21.0391 12.7906C21.0391 12.0261 21.0391 11.3042 20.9935 10.4124V10.4001C20.9669 9.78841 20.872 9.27743 20.7133 8.88232L20.7057 8.86332L20.6981 8.84433C20.569 8.49671 20.3695 8.19183 20.0893 7.9126L20.076 7.8993L20.0627 7.88506C19.8234 7.63432 19.5214 7.44056 19.1377 7.2924L19.132 7.2905C18.6932 7.11859 18.186 7.02361 17.6237 7.00841H17.5962L17.5686 7.00557C17.0662 6.97327 16.1829 6.95618 14.9444 6.95618C14.7231 6.95618 14.4933 6.95618 14.2558 6.95808H14.2435C14.006 6.95808 13.7762 6.95618 13.5549 6.95618C12.3164 6.95618 11.4331 6.97232 10.9307 7.00557L10.9031 7.00746H10.8756C10.3143 7.02361 9.80613 7.11859 9.36733 7.2905L9.36164 7.2924C8.97793 7.44056 8.6759 7.63432 8.43655 7.88506L8.42326 7.8993L8.40996 7.9126C8.12978 8.19183 7.93127 8.49576 7.80116 8.84433L7.79356 8.86332L7.78596 8.88232C7.62735 9.27743 7.53332 9.78841 7.50578 10.4001V10.4124C7.45924 11.3042 7.45924 12.027 7.46019 12.7906C7.46019 13.0965 7.46019 13.4137 7.45734 13.7499C7.46019 14.0861 7.46019 14.4024 7.46019 14.7092C7.46019 15.4738 7.46019 16.1956 7.50578 17.0874V17.0998C7.53237 17.7114 7.62735 18.2224 7.78596 18.6175L7.79356 18.6365L7.80116 18.6555C7.93032 19.0031 8.12978 19.308 8.40996 19.5863L8.42326 19.5996L8.43655 19.6138C8.6759 19.8646 8.97793 20.0583 9.36164 20.2065L9.36733 20.2084C9.80613 20.3793 10.3143 20.4753 10.8756 20.4905H10.9031L10.9307 20.4933C11.4331 20.5256 12.3154 20.5427 13.5539 20.5427C13.7752 20.5427 14.0051 20.5427 14.2435 20.5408H14.2558C14.4933 20.5408 14.7231 20.5427 14.9454 20.5427C16.1839 20.5427 17.0662 20.5266 17.5686 20.4933L17.5962 20.4914H17.6237C18.186 20.4753 18.6932 20.3803 19.132 20.2084L19.1377 20.2065C19.5204 20.0583 19.8234 19.8646 20.0627 19.6138L20.076 19.5996L20.0893 19.5863C20.3695 19.307 20.568 19.0031 20.6981 18.6555L20.7057 18.6365L20.7133 18.6175C20.872 18.2224 20.966 17.7114 20.9935 17.0998V17.0874C21.0401 16.1956 21.0401 15.4738 21.0391 14.7092C21.0391 14.4034 21.0391 14.0861 21.042 13.7499C21.0391 13.4137 21.0391 13.0974 21.0391 12.7906ZM14.2501 18.0011C11.9013 18.0011 9.99798 16.0978 9.99798 13.749C9.99798 11.4002 11.9013 9.49682 14.2501 9.49682C16.5989 9.49682 18.5023 11.4002 18.5023 13.749C18.5023 16.0978 16.5989 18.0011 14.2501 18.0011ZM18.6713 10.3231C18.1224 10.3231 17.6769 9.87768 17.6769 9.32871C17.6769 8.77974 18.1224 8.3343 18.6713 8.3343C19.2203 8.3343 19.6657 8.77974 19.6657 9.32871C19.6657 9.87768 19.2203 10.3231 18.6713 10.3231Z" fill="white"/>
<path d="M14.251 0C6.65665 0 0.50116 6.15549 0.50116 13.7499C0.50116 21.3443 6.65665 27.4998 14.251 27.4998C21.8454 27.4998 28.0009 21.3443 28.0009 13.7499C28.0009 6.15549 21.8445 0 14.251 0ZM22.5331 13.7508C22.5226 14.9305 22.5502 15.865 22.4827 17.1643C22.4514 17.8985 22.3365 18.5776 22.0962 19.175C21.8863 19.7401 21.5615 20.2255 21.1426 20.6434C20.7504 21.0546 20.2603 21.3718 19.6762 21.5979C19.0731 21.8344 18.4025 21.9616 17.6655 21.9816C16.9798 22.0262 15.7707 22.0386 14.2501 22.0319C12.7295 22.0386 11.5214 22.0253 10.8347 21.9816C10.0977 21.9616 9.42714 21.8334 8.82404 21.5979C8.23992 21.3718 7.74984 21.0546 7.35758 20.6434C6.93778 20.2255 6.61391 19.7401 6.40401 19.175C6.16372 18.5785 6.04974 17.8985 6.01745 17.1643C5.96616 16.1699 5.96996 15.3883 5.96996 14.5468C5.96996 14.2894 5.96996 14.0272 5.96711 13.7508V13.7489C5.97756 12.5693 5.95002 11.6347 6.01745 10.3354C6.04879 9.60127 6.16372 8.92218 6.40401 8.32478C6.61391 7.75966 6.93873 7.27433 7.35758 6.85642C7.74984 6.44517 8.23992 6.12795 8.82404 5.9019C9.42714 5.66636 10.0977 5.53814 10.8347 5.51819C11.5204 5.47355 12.7295 5.46121 14.2501 5.46785C15.7707 5.46121 16.9788 5.4745 17.6655 5.51819C18.4025 5.53814 19.0721 5.66636 19.6762 5.9019C20.2603 6.12795 20.7504 6.44517 21.1426 6.85642C21.5624 7.27433 21.8863 7.75966 22.0962 8.32478C22.3365 8.92124 22.4505 9.60127 22.4827 10.3354C22.534 11.3299 22.5302 12.1115 22.5302 12.953C22.5302 13.2104 22.5302 13.4726 22.5331 13.7489V13.7508Z" fill="white"/>
</g>
<defs>
<clipPath id="clip0_37_574">
<rect width="27.4988" height="27.4988" fill="white" transform="translate(0.50116)"/>
</clipPath>
</defs>
</svg>
