<svg width="28" height="28" viewBox="0 0 28 28" fill="none" xmlns="http://www.w3.org/2000/svg">
<path d="M13.5793 0.44519C6.07969 0.44519 0 6.52488 0 14.0244C0 21.524 6.07969 27.6037 13.5793 27.6037C21.0788 27.6037 27.1585 21.524 27.1585 14.0244C27.1585 6.52488 21.0788 0.44519 13.5793 0.44519ZM9.50197 21.3842H6.44067V11.5538H9.50197V21.3842ZM7.9715 10.2001C6.99508 10.2001 6.20359 9.40865 6.20359 8.43223C6.20359 7.45581 6.99508 6.66432 7.9715 6.66432C8.94792 6.66432 9.73941 7.45581 9.73941 8.43223C9.73941 9.40865 8.94792 10.2001 7.9715 10.2001ZM20.9553 21.3842H17.894V16.5188C17.9103 16.221 17.9117 15.9473 17.894 15.6973C17.8111 14.4968 17.3166 13.8558 16.2626 13.8558C15.9829 13.8706 15.7252 13.9268 15.4973 14.0363C14.8416 14.3484 14.4225 15.0889 14.3944 16.5188V21.3842H11.3331V11.5538H14.2761L14.3057 12.8017C15.1818 11.7402 16.3158 11.1037 17.894 11.2047C20.1202 11.569 20.8932 13.0935 20.9553 15.188V21.3846V21.3842Z" fill="white"/>
</svg>
